<?xml version="1.0" standalone="no"?>
<!DOCTYPE svg PUBLIC "-//W3C//DTD SVG 20010904//EN"
 "http://www.w3.org/TR/2001/REC-SVG-20010904/DTD/svg10.dtd">
<svg version="1.0" xmlns="http://www.w3.org/2000/svg"
 width="768.000000pt" height="1344.000000pt" viewBox="0 0 768.000000 1344.000000"
 preserveAspectRatio="xMidYMid meet">

<g transform="translate(0.000000,1344.000000) scale(0.100000,-0.100000)"
fill="#000000" stroke="none">
<path d="M3760 13417 c-6 -12 -14 -116 -20 -232 -5 -115 -15 -241 -21 -280 -9
-52 -9 -107 -1 -220 15 -212 -2 -295 -60 -295 -22 0 -29 -6 -101 -78 -91 -91
-144 -195 -178 -352 -23 -105 -23 -150 -4 -235 25 -104 100 -253 154 -305 48
-46 103 -80 140 -89 24 -5 45 -12 48 -14 15 -16 19 -78 7 -112 -14 -42 -61
-87 -83 -79 -20 7 -71 -69 -71 -107 0 -11 -9 -28 -20 -39 -11 -11 -20 -24 -20
-30 0 -5 -13 -10 -29 -10 -16 0 -31 -6 -34 -14 -4 -9 -14 -12 -27 -9 -16 4
-23 0 -26 -15 -4 -14 -11 -18 -27 -14 -16 4 -19 2 -14 -11 4 -10 2 -17 -4 -17
-11 0 -49 -39 -88 -90 -14 -19 -29 -37 -32 -40 -20 -16 -39 -76 -39 -123 0
-72 20 -118 91 -203 36 -45 63 -88 70 -115 11 -40 10 -49 -14 -99 -14 -30 -30
-74 -37 -97 -6 -24 -20 -52 -31 -62 -12 -11 -18 -25 -14 -31 5 -8 -3 -9 -29
-4 -26 4 -42 2 -54 -8 -9 -8 -34 -23 -55 -32 -26 -12 -37 -22 -33 -32 4 -11 0
-13 -19 -8 -19 5 -25 2 -25 -10 0 -10 -8 -16 -21 -16 -15 0 -19 -4 -15 -16 5
-13 2 -15 -14 -11 -15 4 -20 0 -20 -15 0 -11 -5 -18 -12 -16 -7 3 -17 -4 -23
-15 -5 -11 -19 -25 -30 -31 -10 -6 -28 -21 -38 -33 -10 -13 -25 -23 -33 -23
-8 0 -14 -6 -14 -12 -1 -17 -97 -124 -109 -121 -6 2 -8 -4 -5 -12 4 -10 0 -15
-12 -15 -16 0 -17 -2 -4 -10 13 -8 12 -10 -2 -10 -11 0 -18 -8 -18 -21 0 -13
-4 -18 -12 -13 -7 5 -9 2 -5 -9 4 -10 2 -14 -6 -11 -11 4 -57 -80 -57 -104 0
-25 -35 -118 -49 -129 -8 -7 -10 -13 -4 -13 7 0 14 4 17 9 3 5 15 11 26 14 17
4 18 2 9 -14 -23 -44 -91 -134 -99 -132 -5 2 -7 -3 -4 -11 4 -10 -2 -12 -20
-9 -24 5 -25 6 -11 34 17 32 19 43 6 35 -13 -8 -49 -85 -56 -121 -4 -16 -11
-40 -17 -52 -7 -13 -8 -57 -4 -120 10 -144 8 -235 -6 -226 -5 2 -8 -3 -8 -11
0 -9 -6 -16 -14 -16 -13 0 -26 -30 -40 -90 -8 -38 -43 -70 -76 -70 -16 0 -32
-4 -35 -10 -3 -5 -15 -10 -26 -10 -11 0 -22 -7 -25 -15 -4 -8 -16 -15 -29 -15
-13 0 -25 -7 -29 -15 -3 -8 -14 -15 -25 -15 -10 0 -21 -7 -25 -15 -3 -9 -12
-12 -22 -8 -13 5 -16 2 -12 -8 3 -8 9 -22 13 -31 4 -11 0 -20 -14 -28 -12 -6
-21 -8 -21 -4 0 3 -7 1 -15 -6 -8 -7 -13 -16 -10 -20 3 -5 -8 -18 -24 -29 -16
-12 -32 -17 -35 -13 -3 5 -18 7 -33 5 l-28 -4 35 30 c32 28 33 30 13 31 -13 0
-23 -4 -23 -8 0 -5 -20 -17 -45 -28 -25 -10 -45 -22 -45 -26 0 -5 -10 -13 -22
-18 -13 -6 -30 -14 -38 -19 -8 -5 -31 -16 -50 -25 -19 -8 -45 -24 -57 -35 -12
-12 -27 -21 -33 -21 -6 0 -13 -7 -16 -15 -4 -8 -12 -15 -19 -15 -7 0 -15 -7
-19 -15 -3 -8 -10 -15 -16 -15 -13 0 -45 -30 -45 -41 0 -4 -19 -21 -42 -38
-24 -17 -43 -28 -43 -24 0 4 -38 -32 -85 -80 -47 -48 -83 -92 -80 -97 4 -6 -1
-10 -10 -10 -9 0 -14 -4 -11 -9 7 -11 -38 -53 -47 -44 -4 3 -7 -1 -7 -10 0
-10 -4 -17 -10 -17 -5 0 -9 -5 -7 -12 1 -7 -5 -13 -13 -13 -8 0 -14 -6 -13
-13 2 -7 -2 -12 -7 -12 -6 0 -10 -5 -10 -10 0 -6 -12 -24 -28 -39 -39 -42 -52
-59 -52 -69 0 -5 -7 -15 -15 -22 -8 -7 -15 -18 -15 -24 0 -7 3 -7 8 -1 8 11
47 14 57 4 3 -4 -7 -33 -23 -65 -16 -33 -33 -70 -36 -84 -11 -36 -56 -130 -79
-163 -26 -38 -47 -20 -47 42 l0 46 -30 -47 c-33 -53 -37 -67 -16 -49 19 16 26
3 33 -62 5 -55 -21 -147 -43 -154 -14 -5 -34 48 -35 96 -1 27 -3 30 -6 11 -3
-14 -8 -29 -12 -33 -4 -4 3 -29 16 -54 31 -62 29 -90 -12 -224 -19 -63 -35
-125 -35 -139 0 -14 -4 -31 -9 -39 -13 -21 -22 1 -30 77 l-7 67 -7 -74 c-8
-80 9 -406 23 -456 5 -16 12 -51 16 -78 3 -26 11 -50 17 -54 6 -4 8 3 4 19
-14 56 -27 167 -26 238 l0 75 21 -40 c59 -111 69 -153 68 -286 0 -83 5 -143
15 -175 8 -26 13 -50 11 -52 -4 -3 -45 99 -74 183 -21 61 -11 -5 12 -76 106
-333 336 -673 604 -892 35 -29 96 -78 135 -111 178 -146 437 -297 652 -380 66
-26 129 -51 140 -56 11 -5 45 -17 76 -26 l56 -17 2 -60 c1 -72 22 -112 69
-138 19 -9 37 -20 40 -24 4 -4 9 -108 12 -232 l5 -225 37 -32 c30 -26 40 -44
58 -111 58 -216 181 -378 416 -547 49 -36 110 -69 189 -103 22 -9 54 -23 71
-30 21 -9 34 -24 43 -53 17 -51 46 -84 97 -110 48 -24 60 -59 44 -126 -5 -22
-7 -44 -4 -48 3 -4 -3 -8 -13 -8 -15 0 -16 -2 -3 -10 12 -8 11 -10 -6 -10 -20
0 -28 -11 -53 -73 -18 -45 -14 -133 9 -177 21 -41 97 -110 122 -110 29 0 56
-44 63 -103 8 -65 32 -92 91 -103 60 -11 70 -63 29 -144 -38 -75 -32 -110 29
-161 34 -30 36 -41 26 -246 l-4 -91 32 -30 c34 -32 40 -60 22 -106 -8 -23 -15
-26 -60 -26 -32 0 -49 -4 -45 -10 4 -6 -18 -10 -58 -10 -87 0 -160 -24 -234
-77 -35 -25 -63 -40 -63 -33 0 18 -55 -31 -73 -65 -46 -85 -55 -197 -27 -312
20 -82 94 -243 112 -243 4 0 18 -19 32 -43 21 -35 191 -212 302 -314 17 -15
39 -43 50 -61 l18 -32 126 0 125 0 48 66 c27 36 56 68 65 72 20 7 198 191 276
286 29 35 96 167 96 189 0 9 4 18 9 22 6 3 13 26 17 50 3 25 10 48 15 51 27
17 -1 216 -43 297 -25 50 -122 147 -147 147 -11 0 -21 4 -23 9 -1 6 -28 10
-58 11 -99 2 -162 -14 -253 -63 -48 -26 -87 -45 -87 -41 0 14 24 51 47 70 23
19 24 24 14 60 -18 66 -13 136 14 196 14 31 29 86 34 124 7 55 17 84 50 137
46 76 49 100 21 182 -11 32 -20 67 -20 78 0 21 66 87 87 87 6 0 15 17 18 38
13 73 47 142 72 142 16 0 103 89 114 117 14 37 15 128 1 178 -6 22 -25 55 -41
72 -68 75 -61 152 19 208 35 24 49 42 61 81 17 49 18 50 132 109 165 86 239
138 332 229 113 113 195 240 240 376 20 59 45 116 56 126 12 11 28 32 36 48
16 30 32 210 33 358 0 82 1 87 29 110 50 43 63 71 60 134 -3 66 -8 62 136 108
94 30 316 129 397 177 256 153 358 229 547 407 166 156 256 261 349 406 151
238 216 396 282 691 28 121 33 166 37 325 3 110 1 213 -5 255 -28 180 -44 261
-64 313 -38 106 -176 377 -225 442 -127 172 -339 394 -466 487 -18 13 -41 34
-53 46 -38 39 -74 67 -88 67 -8 0 -16 7 -20 15 -3 8 -15 15 -26 15 -11 0 -20
5 -20 10 0 6 -6 10 -14 10 -8 0 -30 14 -48 30 -32 30 -58 39 -58 21 0 -5 9
-12 19 -16 11 -3 25 -13 33 -23 10 -12 3 -11 -25 6 -21 12 -43 22 -48 22 -6 0
-30 14 -54 30 -24 17 -48 30 -53 30 -5 0 -16 7 -23 16 -8 9 18 1 58 -20 79
-39 83 -41 83 -26 0 6 -9 10 -19 10 -10 0 -21 7 -25 15 -3 8 -12 15 -21 15 -8
0 -15 4 -15 8 0 9 -69 42 -87 42 -6 0 -13 7 -17 15 -3 8 -14 15 -25 15 -11 0
-21 3 -23 8 -1 4 -34 23 -73 42 -38 19 -71 38 -73 43 -2 4 -14 7 -27 7 -13 0
-30 7 -39 15 -8 8 -25 15 -38 15 -13 0 -38 13 -56 29 -29 27 -32 35 -32 88 0
61 -15 95 -59 130 -29 23 -31 56 -8 138 10 34 17 95 17 146 0 75 -4 93 -30
145 -16 32 -56 89 -90 126 -33 36 -60 72 -60 80 0 8 -7 41 -16 73 -46 181
-298 433 -561 565 -49 25 -70 30 -94 25 -22 -5 -29 -4 -25 4 4 6 -1 22 -11 37
-9 15 -18 43 -19 63 -3 47 -39 153 -49 143 -5 -4 -5 -1 -1 6 4 7 12 10 17 7 5
-4 9 1 9 10 0 14 32 69 50 85 3 3 19 23 35 45 42 56 60 125 60 230 0 82 -3 94
-29 134 -39 60 -84 104 -128 124 -20 10 -40 22 -43 27 -3 6 -17 10 -31 10 -32
0 -96 41 -110 71 -7 13 -19 45 -28 70 -19 54 -80 119 -111 119 -31 0 -66 42
-72 88 -6 45 20 111 66 166 56 67 142 204 163 261 20 53 22 79 23 230 0 145
-3 177 -19 220 -34 86 -126 215 -154 215 -7 0 -12 4 -12 10 0 5 -16 16 -35 25
-19 9 -39 23 -46 31 -17 20 -14 97 5 125 8 13 20 47 26 74 6 28 21 66 33 85
46 72 51 106 52 389 0 240 -2 270 -19 304 -15 30 -24 37 -47 37 -16 0 -29 -4
-29 -10 0 -12 -47 -13 -54 -1 -3 4 -62 9 -131 9 -121 1 -126 0 -135 -21z m333
-75 c26 -64 31 -145 14 -204 -9 -29 -18 -98 -21 -153 -5 -99 -29 -195 -48
-195 -6 0 -7 57 -3 158 3 86 8 211 10 277 1 66 3 128 4 138 2 30 28 18 44 -21z
m-244 -114 c1 -87 -23 -149 -51 -132 -20 13 -1 181 26 223 15 23 24 -13 25
-91z m89 -213 c26 -57 9 -218 -30 -286 -33 -58 -55 -63 -82 -18 -32 55 -6 199
54 297 24 39 43 41 58 7z m168 -763 c19 -20 48 -69 64 -109 28 -67 30 -80 30
-204 0 -151 -15 -230 -63 -327 -25 -50 -35 -62 -51 -60 -17 2 -23 13 -29 53
-4 28 -19 86 -32 130 -23 73 -25 99 -27 306 -3 184 0 229 11 243 20 25 56 13
97 -32z m-405 22 c12 -15 19 -91 35 -360 6 -92 4 -105 -20 -165 -28 -70 -34
-158 -16 -234 20 -83 -30 -142 -65 -76 -8 16 -18 31 -22 33 -15 6 -71 84 -96
133 -73 146 -74 337 -3 487 23 48 149 198 167 198 3 0 12 -7 20 -16z m207
-169 c15 -33 16 -206 1 -239 -15 -33 -55 -42 -81 -19 -18 16 -19 28 -16 113 2
78 7 102 26 133 27 43 54 48 70 12z m-648 -1570 c0 -5 -5 -3 -10 5 -5 8 -10
20 -10 25 0 6 5 3 10 -5 5 -8 10 -19 10 -25z m1290 -25 c8 -5 11 -10 5 -10 -5
0 -17 5 -25 10 -8 5 -10 10 -5 10 6 0 17 -5 25 -10z m-1106 -219 c3 -5 0 -11
-8 -14 -15 -6 -26 1 -26 15 0 11 27 10 34 -1z m1026 -131 c0 -5 -2 -10 -4 -10
-3 0 -8 5 -11 10 -3 6 -1 10 4 10 6 0 11 -4 11 -10z m-543 -420 l56 0 -6 -36
c-10 -60 -40 -109 -68 -109 -18 0 -29 10 -46 45 -28 53 -31 115 -7 106 9 -3
41 -6 71 -6z m-814 -32 c-5 -7 -10 -31 -10 -52 l-1 -39 24 29 c13 16 23 25 23
19 0 -14 -72 -118 -85 -122 -6 -2 -16 8 -24 21 -10 21 -11 31 0 56 17 40 70
113 77 106 3 -3 1 -11 -4 -18z m1932 -74 c9 -15 12 -23 6 -20 -11 7 -35 46
-28 46 3 0 12 -12 22 -26z m74 -116 c7 -10 9 -18 4 -18 -6 0 -22 18 -37 40
-46 70 -29 58 33 -22z m41 -117 c-1 -22 -3 -19 -15 14 -18 50 -18 55 0 31 8
-11 15 -31 15 -45z m171 -256 c16 -27 29 -57 29 -65 0 -8 -9 5 -20 29 -11 23
-34 62 -52 85 -23 29 -25 35 -9 21 13 -11 36 -42 52 -70z m-1532 -9 c32 -50
37 -93 16 -116 -58 -64 -124 36 -80 120 20 39 39 38 64 -4z m367 -1 c17 -43
18 -86 1 -109 -12 -16 -14 -16 -26 -2 -9 11 -11 33 -6 81 4 36 9 65 12 65 2 0
11 -16 19 -35z m214 -26 c20 -75 -5 -149 -30 -85 -10 28 -2 126 11 126 5 0 13
-18 19 -41z m-932 -49 c4 -50 2 -61 -13 -66 -40 -16 -59 60 -29 118 22 42 37
24 42 -52z m1145 36 c23 -67 4 -126 -34 -105 -20 10 -24 43 -13 112 9 50 29
47 47 -7z m183 -23 c12 -65 -24 -117 -53 -77 -17 24 -16 55 4 105 15 38 17 40
30 24 7 -10 16 -33 19 -52z m165 -4 c29 -57 23 -110 -15 -128 -40 -19 -48 -2
-42 79 8 110 20 120 57 49z m-2047 -23 c9 -61 -14 -119 -46 -114 -45 6 -49
117 -7 159 27 27 45 12 53 -45z m-436 24 c-1 -16 -6 -30 -11 -30 -4 0 -6 -3
-4 -7 3 -5 1 -17 -4 -28 -6 -13 -7 -3 -3 30 3 28 8 53 11 58 9 15 13 6 11 -23z
m1150 -33 c-5 -35 -33 -27 -36 11 -3 31 -2 33 18 22 14 -7 20 -19 18 -33z
m1471 -9 c13 -51 2 -112 -21 -116 -27 -5 -31 40 -12 136 7 34 20 26 33 -20z
m-1855 -4 c8 -29 -8 -54 -23 -38 -5 5 -13 21 -16 37 -6 23 -4 27 13 27 13 0
22 -9 26 -26z m-165 -37 c1 -10 -3 -15 -9 -12 -5 3 -10 21 -9 38 0 27 2 29 9
12 5 -11 9 -28 9 -38z m2141 -53 c0 -33 -22 -60 -40 -49 -10 6 -6 77 6 115 8
23 33 -28 34 -66z m-2491 -1 c1 15 6 27 11 27 14 0 12 -33 -4 -55 -13 -18 -14
-18 -25 3 -6 11 -11 36 -10 54 1 32 1 32 14 -12 11 -37 13 -40 14 -17z m-122
-53 c-2 -11 -6 -9 -15 8 -8 14 -10 35 -6 60 l8 37 8 -45 c4 -25 7 -52 5 -60z
m2784 48 c-9 -31 -9 -31 -10 -6 -1 30 11 67 16 51 2 -6 0 -26 -6 -45z m-2944
10 c-3 -7 -5 -2 -5 12 0 14 2 19 5 13 2 -7 2 -19 0 -25z m2861 -34 c-1 -9 -10
-19 -18 -21 -12 -4 -12 -3 -1 5 9 7 10 11 2 13 -7 3 -9 12 -5 22 8 23 27 7 22
-19z m-2834 -109 c6 -16 4 -15 -13 5 -15 18 -20 38 -20 75 l1 50 12 -55 c7
-30 16 -64 20 -75z m53 88 c-3 -10 -5 -4 -5 12 0 17 2 24 5 18 2 -7 2 -21 0
-30z m2923 -319 l0 -53 -32 10 c-18 5 -34 9 -36 9 -2 0 0 5 3 10 4 6 11 7 17
4 8 -5 9 -1 4 12 -4 10 -4 15 0 12 3 -4 13 0 21 8 12 11 13 21 4 47 -10 29 -9
30 4 13 9 -12 15 -41 15 -72z m-1822 41 c-2 -1 -25 -5 -52 -7 -50 -5 -72 -23
-54 -45 7 -9 7 -13 0 -13 -17 0 -21 27 -6 48 10 14 28 22 57 24 39 3 63 0 55
-7z m282 5 c0 -5 -7 -10 -16 -10 -8 0 -12 -4 -9 -10 3 -5 1 -10 -4 -10 -6 0
-11 5 -11 10 0 6 -12 10 -27 9 -16 0 -22 -3 -15 -6 26 -10 10 -21 -29 -19 -25
0 -43 -4 -46 -11 -3 -7 -9 -13 -14 -13 -14 0 13 39 31 44 11 3 11 4 -3 5 -10
0 -20 -6 -23 -14 -14 -36 -27 -7 -15 33 3 8 181 0 181 -8z m-475 -5 c-23 -8
-83 -10 -79 -3 3 4 24 8 47 7 23 0 38 -2 32 -4z m268 -15 c-3 -11 -7 -20 -9
-20 -2 0 -4 9 -4 20 0 11 4 20 9 20 5 0 7 -9 4 -20z m365 13 c-16 -2 -40 -2
-55 0 -16 2 -3 4 27 4 30 0 43 -2 28 -4z m59 1 c-3 -3 -12 -4 -19 -1 -8 3 -5
6 6 6 11 1 17 -2 13 -5z m113 -1 c0 -5 -14 -8 -30 -9 -17 -1 -30 3 -30 7 0 5
14 9 30 9 17 0 30 -3 30 -7z m1157 -15 c-3 -8 -6 -5 -6 6 -1 11 2 17 5 13 3
-3 4 -12 1 -19z m-2087 -31 c0 6 11 8 25 5 14 -2 22 -9 19 -14 -3 -5 -12 -7
-20 -4 -8 3 -14 3 -14 0 0 -2 10 -9 23 -14 18 -7 18 -9 4 -9 -10 -1 -15 -5
-12 -11 11 -17 -7 -11 -21 8 -7 9 -13 13 -14 7 0 -15 13 -31 30 -38 8 -3 -28
-6 -80 -6 l-95 0 25 19 c14 11 30 24 36 29 6 5 21 12 34 16 17 5 21 4 15 -6
-5 -8 -4 -11 1 -6 5 5 10 13 10 18 1 5 2 12 3 15 0 4 8 1 16 -6 8 -7 15 -8 15
-3z m-162 -22 c-39 -27 -58 -33 -36 -12 19 17 51 36 63 36 5 1 -7 -10 -27 -24z
m-738 11 c0 -3 -4 -8 -10 -11 -5 -3 -10 -1 -10 4 0 6 5 11 10 11 6 0 10 -2 10
-4z m1742 -18 c-5 -7 -13 -33 -17 -58 -12 -74 -13 -75 -99 -72 l-76 4 0 29 c0
18 4 28 10 24 6 -3 10 -1 10 4 0 6 7 11 15 11 7 0 19 8 24 18 10 16 10 16 11
-1 0 -10 4 -16 9 -13 5 3 7 15 4 26 -3 11 -8 18 -12 16 -3 -2 -15 2 -26 10
-17 12 -9 14 69 14 70 0 86 -3 78 -12z m208 -43 c48 -65 125 -204 117 -211 -7
-7 -44 12 -87 47 -54 42 -130 79 -161 79 -29 0 -29 0 -29 64 l0 65 38 4 c20 2
47 4 59 5 16 2 33 -13 63 -53z m-760 24 c0 -6 -9 -9 -20 -6 -11 3 -23 1 -26
-5 -3 -5 -13 -7 -21 -4 -8 3 -11 2 -8 -4 7 -11 -36 -10 -51 2 -7 5 -16 -3 -25
-20 -7 -15 -22 -40 -32 -55 -17 -24 -18 -32 -7 -52 14 -27 36 -39 45 -25 4 6
1 10 -5 10 -6 0 -8 5 -4 11 9 16 27 -17 18 -34 -5 -9 -4 -9 7 1 15 14 33 16
25 3 -4 -5 3 -7 14 -4 11 3 20 2 20 -1 0 -13 -125 -64 -168 -70 l-43 -6 62
120 c67 130 85 153 100 129 5 -9 9 -10 9 -2 0 10 16 14 93 21 9 1 17 -3 17 -9z
m50 -13 c0 -14 -4 -27 -9 -30 -4 -3 -6 5 -4 18 4 17 0 25 -14 29 -15 4 -14 5
5 6 17 1 22 -4 22 -23z m-264 -14 c-17 -16 -18 -16 -5 5 7 12 15 20 18 17 3
-2 -3 -12 -13 -22z m1204 13 c11 -13 10 -14 -4 -9 -9 3 -16 10 -16 15 0 13 6
11 20 -6z m-1657 -11 c-5 -13 -3 -15 13 -6 23 12 68 -3 59 -19 -4 -6 -13 -8
-21 -5 -8 3 -11 0 -7 -10 7 -18 11 -18 30 1 12 12 13 19 3 30 -10 12 -9 15 4
15 9 0 16 -5 16 -11 0 -7 10 -5 26 6 14 9 28 14 32 11 3 -3 1 -6 -5 -6 -6 0
-35 -22 -64 -50 -38 -35 -60 -48 -72 -44 -15 5 -18 2 -13 -13 4 -13 -7 -29
-39 -56 -25 -21 -49 -35 -55 -32 -5 3 -10 1 -10 -5 0 -7 -7 -9 -17 -6 -10 4
-14 4 -10 0 11 -12 -58 -42 -125 -55 -44 -9 -62 -9 -71 0 -8 8 -8 11 1 11 8 0
10 8 6 24 -3 14 -1 27 6 31 9 5 10 1 5 -16 -7 -22 -7 -22 9 -6 10 9 24 17 32
17 8 0 14 7 14 15 0 18 -12 19 -28 3 -7 -7 -12 -8 -12 -4 0 10 17 24 80 67
l45 31 -34 -30 -35 -30 43 2 c35 1 39 3 25 13 -14 10 -11 15 25 37 22 14 46
26 52 26 7 0 10 3 6 6 -3 4 -21 1 -38 -5 -45 -16 -29 -2 49 40 78 43 83 44 75
23z m1952 -54 c3 -6 1 -10 -4 -10 -6 0 -11 -5 -11 -11 0 -6 9 -8 20 -4 15 5
18 3 14 -8 -3 -10 5 -18 27 -26 18 -6 30 -13 27 -16 -3 -3 -34 8 -69 25 -35
16 -56 30 -46 30 9 0 17 5 17 10 0 6 -5 10 -12 10 -6 0 -9 3 -5 6 3 3 -9 19
-26 36 l-32 30 47 -31 c26 -17 50 -36 53 -41z m70 52 c-3 -3 -11 0 -18 7 -9
10 -8 11 6 5 10 -3 15 -9 12 -12z m-255 -18 c0 -2 -9 0 -20 6 -11 6 -20 13
-20 16 0 2 9 0 20 -6 11 -6 20 -13 20 -16z m294 8 c2 -4 1 -14 -3 -21 -7 -11
-13 -11 -27 -1 -16 9 -16 11 -2 6 20 -6 34 10 16 17 -9 4 -10 6 -1 6 6 1 14
-3 17 -7z m-1118 -27 c1 -8 -2 -15 -7 -15 -5 0 -9 10 -9 22 0 23 12 17 16 -7z
m-681 5 c3 -6 -4 -10 -17 -10 -18 0 -20 2 -8 10 19 12 18 12 25 0z m-64 -9
c-25 -16 -3 -31 30 -19 16 5 38 8 49 5 10 -3 20 -1 22 5 2 5 31 8 64 6 l61 -3
-20 -53 c-16 -43 -27 -56 -55 -68 -19 -8 -40 -21 -46 -29 -12 -16 -87 -32
-184 -37 -77 -5 -60 8 22 17 130 13 156 17 156 27 0 7 -33 8 -101 3 -98 -7
-101 -6 -125 19 -14 14 -23 30 -19 36 9 15 137 99 150 99 6 1 4 -3 -4 -8z
m1689 -16 c0 -12 -19 -12 -23 0 -4 9 -1 12 9 8 7 -3 14 -7 14 -8z m-1370 -5
c0 -5 -5 -10 -11 -10 -5 0 -7 5 -4 10 3 6 8 10 11 10 2 0 4 -4 4 -10z m-847
-51 c-6 -6 -9 -17 -7 -24 3 -7 -13 -27 -35 -44 -34 -27 -50 -32 -108 -36 -38
-3 -104 -14 -147 -25 -89 -23 -98 -24 -73 -9 9 5 17 14 17 20 0 5 -18 -3 -40
-17 -22 -15 -43 -24 -47 -20 -3 3 -2 6 4 6 6 0 30 16 54 36 53 44 141 89 194
99 22 4 58 10 80 15 65 12 121 12 108 -1z m1187 -5 c0 -2 -19 -3 -42 -3 -39 1
-41 2 -13 8 28 7 55 4 55 -5z m503 -10 c27 -14 68 -40 91 -57 24 -18 52 -38
62 -45 17 -11 15 -12 -16 -7 -19 3 -58 7 -87 9 -65 6 -127 24 -150 45 -12 11
-39 16 -81 17 -34 1 -68 6 -75 12 -6 5 -27 9 -44 7 -35 -2 -41 6 -19 24 9 8
54 11 130 10 64 -1 119 1 123 5 10 9 14 8 66 -20z m799 13 c6 -9 8 -9 8 1 0
22 68 14 113 -14 55 -35 54 -34 37 -44 -11 -7 -6 -10 18 -10 30 0 102 -23 102
-33 0 -2 -21 1 -47 8 -48 12 -149 13 -161 0 -4 -3 2 -13 12 -21 27 -19 11 -18
-19 2 -14 9 -22 20 -19 25 3 5 2 8 -3 7 -13 -4 -63 33 -57 43 3 5 -1 6 -8 4
-8 -3 -24 5 -36 18 l-22 24 37 1 c20 1 41 -4 45 -11z m-1537 -27 c11 -17 -5
-11 -28 11 l-22 21 22 -11 c12 -6 25 -16 28 -21z m30 20 c3 -6 -1 -7 -9 -4
-18 7 -21 14 -7 14 6 0 13 -4 16 -10z m65 0 c0 -5 -5 -10 -11 -10 -5 0 -7 5
-4 10 3 6 8 10 11 10 2 0 4 -4 4 -10z m1085 -47 c25 -32 42 -59 37 -59 -113
-22 -204 -35 -215 -31 -17 6 -61 122 -52 136 3 7 43 11 95 11 l90 0 45 -57z
m160 28 c33 -10 79 -24 102 -30 42 -11 113 -68 113 -90 0 -17 -53 -14 -179 11
l-114 22 -38 49 c-22 27 -39 54 -39 59 0 14 77 4 155 -21z m405 -6 c11 -13 10
-14 -4 -9 -9 3 -16 10 -16 15 0 13 6 11 20 -6z m-1292 -20 c-10 -11 -48 -14
-48 -4 0 5 12 9 27 9 14 0 24 -2 21 -5z m-114 -36 c3 -17 6 -69 6 -115 0 -83
0 -83 -38 -124 -59 -61 -80 -57 -242 46 -173 109 -173 109 -137 138 32 26 129
62 197 74 25 4 82 9 126 10 l82 2 6 -31z m1861 13 c-3 -3 -11 0 -18 7 -9 10
-8 11 6 5 10 -3 15 -9 12 -12z m-2840 -17 c-32 -14 -41 -13 -30 4 3 6 18 11
33 10 l27 -1 -30 -13z m-315 -10 c0 -2 -10 -10 -22 -16 -21 -11 -22 -11 -9 4
13 16 31 23 31 12z m1656 -16 c38 -11 79 -27 92 -36 30 -18 23 -27 -77 -101
-104 -77 -211 -126 -258 -119 -19 4 -38 9 -41 12 -8 8 -31 153 -31 201 -1 22
4 45 11 52 21 21 225 15 304 -9z m1544 -3 c0 -2 -9 -2 -20 1 -11 3 -20 9 -20
15 0 5 9 4 20 -2 11 -6 20 -12 20 -14z m-3320 -25 c-22 -42 -90 -88 -138 -95
-56 -7 -190 -48 -175 -53 6 -2 43 3 84 11 40 9 75 14 77 11 2 -2 -28 -47 -67
-101 -39 -53 -71 -102 -71 -109 0 -17 -20 -25 -100 -40 -36 -7 -91 -19 -122
-26 -75 -17 -90 -6 -64 47 25 54 62 98 107 130 23 16 35 30 29 34 -13 8 19 89
41 106 18 14 182 70 257 89 31 7 79 14 105 14 44 1 47 0 37 -18z m769 10 c19
-12 10 -62 -29 -153 -76 -174 -74 -172 -202 -227 -89 -38 -97 -37 -208 28 -63
36 -65 38 -64 78 0 29 13 61 49 119 26 43 54 92 62 107 13 24 20 28 56 26 45
-1 269 20 276 27 8 7 46 4 60 -5z m-704 -11 c-3 -5 -12 -10 -18 -10 -7 0 -6 4
3 10 19 12 23 12 15 0z m3089 -5 c11 -8 17 -18 13 -21 -3 -3 -18 3 -33 15 -30
23 -10 29 20 6z m146 5 c0 -5 -7 -7 -15 -4 -8 4 -15 8 -15 10 0 2 7 4 15 4 8
0 15 -4 15 -10z m-952 -17 c-5 -14 41 -83 59 -90 10 -4 21 -11 25 -17 4 -6 6
-1 5 12 -1 12 -6 21 -13 18 -6 -2 -17 1 -23 7 -15 15 -14 32 2 20 15 -12 87
-5 87 9 0 6 -11 7 -25 4 -19 -5 -23 -3 -19 9 7 18 12 18 90 5 63 -11 124 -37
124 -53 0 -6 -10 -2 -22 9 -12 10 -18 13 -14 6 4 -7 2 -20 -5 -28 -10 -12 -9
-13 7 -8 33 12 2 -12 -61 -46 -33 -19 -87 -53 -119 -77 -54 -39 -76 -50 -76
-39 0 2 18 16 40 31 47 33 45 45 -4 21 -39 -18 -50 -20 -41 -7 3 5 1 12 -5 16
-5 3 -11 1 -11 -4 -1 -6 -3 -15 -4 -21 -1 -5 -3 -17 -4 -26 -1 -12 -11 -14
-51 -11 -28 2 -53 7 -56 10 -4 4 -15 2 -26 -4 -11 -6 -26 -8 -33 -5 -17 6 -89
154 -88 178 1 10 -2 16 -7 13 -6 -4 -6 3 -1 17 7 19 21 26 92 39 91 18 181 24
177 12z m-398 -39 c0 -6 -73 -35 -77 -30 -11 11 37 44 56 39 12 -3 21 -7 21
-9z m862 -9 c40 -9 108 -18 152 -20 l78 -5 72 -67 c106 -100 180 -200 192
-261 6 -31 6 -31 -22 -22 -16 5 -60 21 -99 35 -77 30 -216 58 -240 49 -9 -4
-27 7 -46 27 -43 47 -180 260 -173 270 7 11 0 12 86 -6z m-3509 -37 c-29 -31
-128 -108 -138 -108 -4 0 -26 -13 -50 -30 -24 -16 -52 -30 -63 -30 -11 0 -36
-11 -57 -25 -49 -34 -57 -25 -9 12 20 15 54 43 75 61 21 19 43 31 48 28 13 -8
38 3 45 20 7 18 1 18 -18 -2 -9 -8 -16 -11 -16 -7 0 12 32 40 90 79 54 37 67
42 98 36 l23 -5 -28 -29z m1692 13 c100 -45 304 -194 283 -205 -2 -1 -28 -20
-58 -43 -70 -51 -184 -123 -197 -123 -5 0 -24 7 -42 16 -18 9 -34 14 -37 11
-3 -2 9 -10 27 -16 18 -6 29 -14 26 -17 -6 -6 -129 40 -152 57 -5 4 -27 10
-47 14 -54 10 -113 32 -113 42 2 57 88 178 173 245 53 41 80 45 137 19z m2259
3 c77 -8 85 -14 216 -163 36 -41 82 -92 103 -114 21 -21 44 -52 52 -67 14 -27
10 -26 -123 36 -75 35 -142 64 -149 64 -7 0 -13 4 -13 9 0 5 -8 8 -17 7 -10 0
-36 25 -65 63 -27 36 -71 88 -98 117 -28 29 -50 55 -50 58 0 3 17 4 38 2 20
-3 68 -8 106 -12z m255 -35 c95 -39 355 -181 367 -200 4 -7 -3 -6 -17 1 -17 9
-11 -1 19 -32 43 -44 62 -89 62 -142 0 -23 -3 -27 -17 -21 -10 4 -58 21 -108
37 -49 16 -106 37 -125 47 -33 17 -320 334 -320 354 0 11 21 4 139 -44z
m-1539 18 c-24 -11 -107 -70 -142 -102 -10 -8 -22 -15 -28 -15 -9 0 -14 -14
-11 -32 0 -5 -3 -8 -9 -8 -5 0 -10 -9 -10 -21 0 -26 -24 -20 -28 7 -2 15 15
34 60 70 123 97 147 112 178 113 8 0 4 -6 -10 -12z m-2450 -17 c0 -17 -36 -84
-90 -166 -28 -42 -50 -80 -50 -84 0 -16 -59 -45 -165 -82 -65 -22 -111 -34
-113 -28 -9 27 53 122 121 187 98 93 130 116 212 151 79 35 85 36 85 22z
m3221 -49 c9 -9 39 -59 68 -112 l51 -97 -55 -71 c-65 -82 -65 -82 -204 -50
-72 16 -107 31 -165 69 -41 27 -80 59 -87 71 -10 20 -8 26 18 48 17 14 56 42
88 61 32 19 70 45 84 56 61 50 165 63 202 25z m-667 -56 c17 -54 11 -59 -10
-8 -12 29 -18 33 -26 22 -8 -11 -9 -10 -4 4 3 10 6 28 6 40 1 20 2 20 11 5 5
-10 16 -38 23 -63z m-2825 -21 c-19 -20 -43 -40 -53 -46 -17 -9 -17 -7 3 20
25 36 72 75 79 67 3 -3 -10 -21 -29 -41z m2631 20 c0 -16 -5 -24 -12 -21 -7 2
-12 10 -10 17 2 8 -3 10 -14 6 -14 -5 -15 -4 -4 9 20 24 40 18 40 -11z m-2748
-111 c-33 -54 -71 -111 -83 -127 -29 -37 -207 -168 -219 -161 -5 3 -5 18 0 34
4 16 6 32 3 34 -2 3 3 20 12 39 27 52 124 146 195 188 36 21 83 52 105 68 22
17 42 29 44 27 2 -2 -24 -48 -57 -102z m2544 41 c22 -11 47 -37 72 -76 20 -33
56 -83 79 -112 39 -50 41 -55 27 -75 -16 -22 -149 -127 -199 -155 -37 -21 -22
-16 75 24 93 39 119 37 136 -10 15 -42 17 -30 5 24 -7 27 -6 45 2 58 15 24
154 118 175 118 9 0 33 12 54 27 43 29 50 26 68 -32 7 -22 33 -79 57 -127 23
-48 43 -96 43 -108 0 -11 -11 -32 -24 -45 l-23 -23 97 -46 c123 -58 209 -91
330 -126 120 -35 189 -65 197 -85 9 -24 -9 -54 -68 -119 -30 -32 -74 -88 -99
-125 -26 -39 -64 -79 -91 -97 -59 -39 -52 -61 9 -34 l43 20 37 -24 c21 -13 43
-31 51 -39 7 -9 50 -38 94 -64 164 -97 218 -185 144 -235 -132 -90 -216 -142
-266 -168 l-58 -29 -35 37 c-20 20 -52 63 -72 95 -19 31 -38 57 -40 57 -11 0
29 -88 69 -150 25 -38 45 -76 45 -83 0 -8 -12 -20 -27 -28 -36 -18 -118 -69
-112 -69 2 0 28 9 57 19 28 11 52 16 52 13 0 -4 4 -1 9 7 7 11 10 9 16 -8 6
-20 25 -30 25 -13 0 5 6 16 13 25 12 17 14 17 46 1 30 -15 32 -20 28 -53 -3
-20 -10 -54 -15 -75 -9 -34 -7 -48 14 -99 14 -33 32 -70 40 -83 14 -20 17 -21
32 -8 9 8 41 30 70 49 l52 34 21 -22 20 -22 -22 -15 c-13 -8 -32 -23 -43 -33
l-21 -18 22 10 c33 17 42 12 10 -5 -15 -8 -31 -13 -35 -10 -4 3 -26 -6 -47
-19 -97 -60 -227 -113 -211 -86 3 4 -24 -2 -60 -16 -37 -13 -74 -21 -84 -18
-9 3 -43 26 -75 50 -31 25 -61 45 -66 45 -5 0 -9 8 -9 18 0 9 -7 26 -16 37
-13 17 -16 18 -25 5 -8 -11 -12 -12 -16 -2 -2 6 -10 12 -16 12 -6 0 18 -30 54
-67 124 -127 131 -151 80 -259 -72 -154 -91 -158 -279 -57 -69 38 -139 81
-155 98 l-30 29 17 -32 c9 -18 13 -32 9 -32 -4 0 3 -7 15 -16 36 -25 15 -35
-27 -13 -30 15 -40 27 -44 52 -2 18 -1 34 4 35 5 2 9 8 9 13 0 6 -5 7 -10 4
-6 -4 -17 -1 -25 5 -19 16 -19 1 0 -24 8 -11 15 -30 15 -43 0 -32 -137 -315
-163 -335 -24 -19 -67 -24 -82 -9 -8 7 -154 20 -242 21 -16 0 -30 15 -55 62
-18 34 -57 89 -87 121 -57 61 -66 89 -48 147 7 20 6 22 -3 8 -17 -27 -33 -22
-26 7 4 14 2 25 -4 25 -5 0 -10 -10 -10 -22 0 -13 -11 -41 -23 -63 -19 -34
-40 -49 -136 -98 -72 -37 -132 -60 -162 -64 l-48 -6 -63 69 c-35 38 -89 94
-120 125 -86 84 -82 101 58 288 46 62 84 115 82 116 -6 6 -44 -31 -92 -90 -27
-33 -68 -78 -90 -101 -23 -22 -71 -73 -108 -113 l-68 -72 -62 51 c-107 87
-132 105 -170 125 -21 11 -38 26 -38 33 0 7 -4 10 -10 7 -5 -3 -10 0 -10 9 0
8 -12 28 -26 45 -26 31 -26 32 -8 59 26 39 42 54 48 43 4 -5 0 -12 -6 -15 -10
-3 -8 -9 6 -20 10 -8 15 -19 11 -25 -4 -7 6 -11 25 -11 23 0 31 4 27 14 -3 7
0 19 6 25 14 14 20 54 7 46 -5 -3 -5 7 1 25 6 17 9 39 6 50 -3 10 0 21 5 22 5
2 8 15 6 28 -3 24 -4 24 -25 -10 -27 -41 -30 -33 -6 13 31 58 53 108 44 102
-5 -2 -35 -51 -67 -107 -67 -120 -173 -268 -191 -268 -7 0 -13 -7 -13 -15 0
-24 -11 -19 -91 43 -66 50 -110 88 -255 217 l-34 30 14 55 c56 222 138 434
172 447 20 7 151 -64 279 -153 74 -51 194 -157 194 -172 1 -9 5 -10 20 -1 13
9 26 9 47 2 16 -6 38 -14 49 -18 11 -4 -7 9 -40 28 -56 32 -60 37 -58 68 4 65
8 87 14 83 4 -2 21 26 38 62 30 63 40 94 21 64 -7 -11 -10 -11 -10 -2 0 7 -5
10 -11 6 -6 -3 -8 -17 -5 -30 4 -16 3 -22 -6 -19 -8 3 -23 -13 -37 -39 -14
-28 -33 -48 -50 -54 -29 -9 -111 4 -111 19 0 5 -10 9 -22 9 -23 0 -140 82
-218 153 -32 30 -40 44 -36 60 8 30 296 362 296 342 0 -4 14 5 31 19 19 17 43
26 64 26 28 0 42 -10 90 -62 31 -35 54 -55 51 -45 -4 14 3 12 37 -11 91 -62
89 -57 -11 26 -107 89 -142 136 -142 189 0 23 8 33 43 51 23 13 69 32 102 43
33 10 47 16 30 13 -53 -10 -129 -24 -150 -26 -17 -3 -19 2 -16 34 1 22 -10 77
-29 133 l-31 96 20 27 c35 49 79 85 93 76 7 -4 10 -3 5 1 -8 9 20 45 35 45 5
0 2 -7 -6 -16 -15 -14 -21 -34 -12 -34 3 0 16 4 30 10 30 11 34 3 9 -16 -16
-12 -15 -13 15 -14 36 0 61 -18 54 -38 -2 -6 1 -12 7 -12 6 0 11 5 11 11 0 5
4 8 9 4 6 -3 14 3 20 12 7 12 10 13 11 4 0 -8 8 -4 19 10 23 29 20 35 -8 19
-12 -6 -21 -7 -20 -3 2 15 -13 53 -22 53 -5 0 -9 5 -9 12 0 9 3 9 11 1 6 -6
18 -9 27 -6 12 5 14 1 10 -21 -6 -32 12 -31 27 2 5 12 19 22 30 22 18 0 18 1
-3 16 -20 13 -21 18 -10 32 12 15 11 16 -5 3 -10 -8 -16 -20 -13 -28 3 -7 2
-23 -3 -35 -7 -20 -9 -19 -15 14 -6 35 -30 56 -41 38 -4 -6 -1 -10 4 -10 6 0
11 -5 11 -10 0 -6 -8 -5 -19 2 -19 11 -18 13 12 35 32 24 22 32 -13 11 -15 -9
-22 -10 -31 -1 -8 8 0 22 33 56 44 43 77 57 139 57 16 0 29 5 29 10 0 6 -11
10 -24 10 -14 0 -28 5 -31 10 -4 6 6 10 23 10 17 0 32 -6 35 -14 3 -8 21 -17
39 -21 18 -4 48 -15 65 -23 40 -19 40 -24 13 -187 -20 -112 -27 -214 -18 -260
2 -16 -4 -21 -32 -25 -22 -3 -29 -8 -20 -11 22 -9 61 8 67 30 7 27 29 33 48
14 9 -8 18 -13 20 -11 3 3 -8 17 -25 31 -25 22 -30 35 -30 71 0 24 8 70 19
102 10 33 24 97 31 144 18 131 24 134 125 89 22 -10 55 -19 73 -19 23 0 41 -9
60 -27 40 -42 103 -82 119 -76 8 3 13 2 11 -3 -2 -5 5 -20 15 -34 9 -13 17
-19 17 -13 0 7 -4 15 -10 18 -5 3 -10 11 -10 17 0 6 7 5 18 -4 9 -9 28 -21 42
-28 14 -7 -15 24 -63 69 -48 46 -87 88 -87 95 0 16 79 91 158 150 69 52 76 53
141 6 39 -29 41 -32 41 -84 0 -30 4 -58 10 -61 6 -4 7 23 3 75 -7 98 9 108 30
18 l15 -63 1 49 c1 41 6 53 35 82 39 39 85 45 142 18z m104 -24 c0 -5 -2 -10
-4 -10 -3 0 -8 5 -11 10 -3 6 -1 10 4 10 6 0 11 -4 11 -10z m325 -4 c7 3 16 0
20 -6 12 -20 -65 -88 -154 -137 -81 -44 -85 -45 -98 -27 -25 33 -44 74 -34 74
5 0 12 -6 14 -12 3 -8 6 -7 6 4 1 18 34 33 50 23 5 -3 12 -1 15 4 3 5 22 12
41 15 22 5 33 11 29 18 -4 7 -2 8 5 4 13 -8 80 32 82 49 0 6 3 5 5 -2 3 -7 11
-10 19 -7z m-255 -6 c0 -5 -4 -10 -10 -10 -5 0 -10 5 -10 10 0 6 5 10 10 10 6
0 10 -4 10 -10z m-1509 -40 c45 -22 88 -40 95 -40 27 0 24 -21 -6 -51 -17 -17
-37 -43 -45 -58 -7 -15 -31 -41 -52 -57 -21 -15 -47 -37 -58 -47 -27 -26 -130
-77 -154 -77 -10 0 -28 8 -40 18 -19 16 -20 22 -11 82 5 36 10 92 10 126 0 64
13 85 69 114 74 38 96 37 192 -10z m3588 18 c5 -13 7 -24 6 -26 -6 -7 -44 32
-39 40 9 15 25 8 33 -14z m137 -80 c57 -61 103 -129 97 -144 -5 -13 -8 -12
-24 2 -34 31 -20 -2 21 -49 44 -50 52 -78 20 -70 -11 3 -20 9 -20 14 0 5 -10
8 -22 6 -19 -2 -23 2 -20 23 1 18 0 21 -7 11 -7 -11 -20 -4 -59 34 -57 53 -77
97 -90 196 l-8 66 40 -28 c23 -15 55 -42 72 -61z m-2196 72 c0 -5 -4 -10 -10
-10 -5 0 -10 5 -10 10 0 6 5 10 10 10 6 0 10 -4 10 -10z m503 -59 c113 -70
128 -86 120 -135 -4 -27 -16 -45 -44 -68 -22 -17 -39 -39 -39 -49 0 -10 -18
-39 -40 -65 -38 -43 -40 -48 -25 -64 15 -17 15 -19 -2 -22 -10 -2 -26 5 -35
15 -17 19 -17 32 -2 89 3 9 37 47 76 83 39 36 69 68 66 70 -3 3 -34 -22 -70
-55 -61 -55 -67 -58 -80 -42 -23 26 -118 221 -118 241 0 10 9 30 20 44 17 22
24 24 54 17 19 -4 73 -31 119 -59z m-2364 12 c24 -14 32 -27 37 -61 9 -60 0
-200 -14 -214 -8 -8 -12 -9 -12 -1 0 6 -7 10 -16 9 -9 0 -19 5 -21 12 -3 6 0
12 7 12 6 0 8 -6 4 -12 -5 -10 -4 -10 6 -1 11 10 10 17 -5 39 -9 14 -13 24 -7
20 6 -3 9 10 9 36 -1 22 -3 36 -5 30 -8 -24 -29 -12 -24 13 2 14 9 25 14 25 6
0 5 7 -2 15 -7 9 -17 12 -24 7 -6 -5 -24 -9 -39 -10 -39 -3 -30 20 14 35 28 9
34 15 31 37 -3 31 6 32 47 9z m-409 -77 c-37 -97 -206 -403 -229 -416 -12 -6
-38 -1 -82 14 -158 56 -176 86 -120 201 49 99 67 113 228 174 90 34 143 48
185 50 25 1 27 -1 18 -23z m3350 -39 c0 -10 -5 -17 -11 -15 -6 2 -10 7 -10 11
1 4 1 17 1 30 0 18 2 19 10 7 5 -8 10 -23 10 -33z m447 21 c-3 -8 -6 -5 -6 6
-1 11 2 17 5 13 3 -3 4 -12 1 -19z m-4618 -20 c-10 -6 -7 -7 10 -2 22 6 21 3
-12 -31 -22 -23 -41 -34 -48 -29 -7 4 -10 3 -6 -3 4 -6 -4 -18 -18 -27 -28
-19 -35 -20 -35 -6 0 6 5 9 11 8 6 -2 14 3 17 11 3 9 0 11 -9 6 -7 -5 0 8 15
28 35 45 80 80 85 65 2 -6 -3 -15 -10 -20z m4715 -3 c11 -8 28 -15 39 -15 14
0 17 -5 12 -20 -5 -14 -2 -20 9 -20 23 0 20 -37 -4 -50 -20 -11 -26 -3 -21 24
2 10 -29 -12 -41 -29 -5 -6 -8 -5 -8 2 0 7 -7 10 -15 6 -9 -3 -15 -2 -14 3 4
21 -2 34 -15 34 -11 0 -14 -9 -10 -37 l4 -38 -14 30 c-9 17 -15 44 -14 60 0
17 2 22 5 13 2 -10 9 -18 15 -18 6 0 8 10 4 25 -4 14 -4 30 -1 35 9 15 47 11
69 -5z m-4469 -97 c-29 -57 -69 -144 -89 -194 -42 -107 -78 -173 -107 -200
-21 -19 -21 -18 -39 4 -11 13 -22 44 -26 70 -3 26 -10 53 -14 61 -10 18 23
114 54 161 38 58 225 200 263 200 6 0 -12 -46 -42 -102z m925 67 c0 -8 -7 -15
-15 -15 -16 0 -20 12 -8 23 11 12 23 8 23 -8z m2650 11 c0 -2 -7 -6 -15 -10
-8 -3 -15 -1 -15 4 0 6 7 10 15 10 8 0 15 -2 15 -4z m243 -36 c0 -19 -5 -64
-9 -100 l-8 -65 -8 50 c-4 28 -6 56 -3 62 2 7 -1 12 -7 10 -6 -1 -15 12 -19
28 -7 24 -5 33 8 43 30 21 47 11 46 -28z m142 30 c3 -5 2 -10 -4 -10 -5 0 -13
5 -16 10 -3 6 -2 10 4 10 5 0 13 -4 16 -10z m802 -4 c-6 -14 92 -106 112 -106
19 0 76 -35 79 -48 2 -10 -3 -10 -17 -2 -46 24 -31 7 34 -40 38 -27 73 -50 78
-50 5 0 6 -26 3 -57 -3 -32 -8 -91 -12 -131 -4 -44 -12 -80 -23 -93 -16 -20
-17 -20 -63 24 -26 24 -77 82 -113 128 -67 85 -89 135 -99 229 -3 25 -10 61
-16 80 -16 54 -13 69 10 63 11 -3 20 0 20 6 0 6 3 11 6 11 3 0 4 -6 1 -14z
m-4678 -133 c1 -46 -13 -93 -32 -105 -16 -10 -59 -10 -76 1 -12 8 -9 23 18 93
18 46 40 99 49 118 l17 35 11 -50 c7 -27 13 -69 13 -92z m-289 109 c0 -9 -11
-34 -25 -54 -14 -20 -25 -43 -25 -50 0 -7 -14 -54 -31 -105 -25 -75 -38 -98
-70 -127 -21 -20 -43 -36 -47 -36 -12 0 -42 56 -42 79 0 12 11 43 24 69 14 27
24 57 23 67 -1 13 22 35 76 73 43 30 82 65 87 78 11 28 30 32 30 6z m1570 8
c0 -11 -42 -31 -49 -24 -5 5 30 33 42 34 4 0 7 -5 7 -10z m2634 -31 c66 -37
176 -149 176 -179 0 -36 -29 -87 -65 -115 -19 -14 -37 -25 -40 -25 -4 0 -49
-25 -101 -56 -126 -75 -134 -69 -154 115 -9 86 -9 104 4 116 8 8 18 29 21 47
4 18 18 57 31 87 22 49 26 53 50 47 14 -4 49 -20 78 -37z m1174 10 c7 -12 11
-23 8 -26 -8 -9 -36 17 -36 33 0 20 13 17 28 -7z m-4241 -15 c-9 -9 -28 6 -21
18 4 6 10 6 17 -1 6 -6 8 -13 4 -17z m3713 5 c0 -14 -17 -10 -23 5 -4 10 -1
13 9 9 7 -3 14 -9 14 -14z m17 -31 c-3 -8 -6 -5 -6 6 -1 11 2 17 5 13 3 -3 4
-12 1 -19z m334 -15 c13 -16 12 -17 -3 -4 -10 7 -18 15 -18 17 0 8 8 3 21 -13z
m266 -15 c38 -41 58 -77 55 -103 -2 -19 -1 -19 6 -1 8 18 10 17 29 -10 11 -16
46 -79 77 -139 56 -108 57 -111 42 -140 -9 -17 -16 -36 -16 -42 0 -21 -20 -15
-29 10 -5 12 -26 38 -46 57 -42 40 -65 84 -66 132 l-1 33 -9 -35 c-4 -19 -6
-42 -3 -51 2 -9 -2 -28 -10 -44 l-14 -27 -18 33 c-9 19 -32 54 -51 79 -86 113
-113 153 -113 171 0 24 9 24 27 2 13 -16 13 -16 4 4 -21 42 -11 47 25 12 22
-20 54 -71 79 -123 23 -50 44 -85 48 -80 3 5 -12 49 -34 97 -28 63 -39 100
-39 135 0 73 11 78 57 30z m-598 -46 c-1 -34 -6 -49 -15 -49 -17 0 -19 44 -1
50 6 2 9 8 5 12 -8 9 -31 -12 -41 -37 -7 -19 -27 -25 -27 -8 0 6 5 10 10 10 6
0 10 9 10 20 0 15 36 46 57 50 2 0 2 -22 2 -48z m-139 14 c0 -11 -19 -15 -25
-6 -3 5 1 10 9 10 9 0 16 -2 16 -4z m43 -10 c4 -10 1 -13 -9 -9 -7 3 -14 9
-14 14 0 14 17 10 23 -5z m-3963 -10 c0 -3 -4 -8 -10 -11 -5 -3 -10 -1 -10 4
0 6 5 11 10 11 6 0 10 -2 10 -4z m3690 0 c0 -3 -4 -8 -10 -11 -5 -3 -10 -1
-10 4 0 6 5 11 10 11 6 0 10 -2 10 -4z m230 -89 c76 -47 116 -78 115 -92 0 -5
-3 -9 -7 -8 -4 2 -5 -4 -2 -12 8 -19 -22 -20 -33 -1 -12 20 -95 88 -101 82 -3
-3 1 -13 9 -22 13 -16 12 -16 -8 -6 -27 15 -40 35 -25 40 6 2 -5 17 -24 34
-41 36 -59 31 -19 -6 33 -31 19 -35 -19 -5 -47 37 -26 83 24 51 14 -9 54 -34
90 -55z m-3885 43 c11 -17 -5 -32 -21 -19 -8 6 -14 15 -14 20 0 12 27 11 35
-1z m450 -31 c62 -69 68 -95 61 -254 l-6 -140 -52 -45 c-28 -25 -94 -84 -146
-132 -51 -49 -98 -88 -103 -88 -5 0 -17 12 -26 27 -16 24 -18 54 -18 273 l0
246 26 40 c19 28 47 50 99 77 94 49 118 48 165 -4z m3496 24 c13 -15 12 -15
-8 -4 -24 12 -29 21 -14 21 5 0 15 -7 22 -17z m-1056 -33 c26 -22 59 -47 74
-54 33 -18 59 -46 42 -46 -7 0 -22 5 -34 12 -20 10 -21 10 -8 -5 25 -31 -14
-20 -49 13 -18 17 -34 30 -37 30 -14 0 -73 58 -73 73 0 29 36 20 85 -23z
m1138 24 c3 -3 3 -12 0 -20 -4 -11 -9 -12 -19 -3 -8 6 -11 15 -8 20 6 10 18
12 27 3z m-374 -39 c-10 -42 -13 -46 -30 -42 -11 3 -19 1 -19 -4 0 -5 4 -9 9
-9 5 0 15 -15 22 -32 7 -18 20 -38 29 -45 13 -10 13 -11 -1 -9 -10 1 -24 8
-33 16 -14 10 -14 15 -4 22 9 7 5 8 -11 4 -13 -3 -30 1 -37 9 -19 19 -18 31 1
15 9 -7 18 -10 22 -6 10 10 -4 19 -32 19 -28 0 -31 8 -14 40 16 30 15 30 40
17 18 -10 24 -9 31 4 10 18 31 18 27 1z m841 -78 c0 -12 -26 16 -32 33 -2 8
-8 -5 -12 -29 -4 -28 -2 -48 5 -57 7 -8 9 -18 5 -22 -4 -4 -13 2 -19 13 -12
22 -10 75 5 114 l10 26 18 -35 c11 -19 19 -39 20 -43z m-4980 8 c44 -25 84
-45 90 -45 21 0 70 -31 70 -44 0 -35 -150 -270 -227 -355 -27 -30 -34 -33 -42
-21 -19 28 -53 150 -48 169 3 13 -1 21 -16 25 -18 4 -19 11 -14 72 3 37 0 77
-5 89 -7 16 -6 29 2 45 16 30 90 110 102 110 5 0 44 -20 88 -45z m607 -81 c14
-108 17 -324 4 -324 -6 0 -5 -15 1 -37 5 -20 8 -72 6 -116 -3 -64 -7 -81 -23
-94 -49 -37 -212 21 -244 87 -29 58 -105 397 -84 376 3 -3 28 16 55 42 27 26
71 57 96 69 26 13 72 39 102 58 30 19 60 33 65 32 6 -2 15 -44 22 -93z m3683
86 c0 -5 -4 -10 -10 -10 -5 0 -10 5 -10 10 0 6 5 10 10 10 6 0 10 -4 10 -10z
m125 -30 c3 -5 -1 -10 -9 -10 -9 0 -16 5 -16 10 0 6 4 10 9 10 6 0 13 -4 16
-10z m545 6 c0 -3 -4 -8 -10 -11 -5 -3 -10 -1 -10 4 0 6 5 11 10 11 6 0 10 -2
10 -4z m50 -21 c7 -9 8 -15 2 -15 -5 0 -12 7 -16 15 -3 8 -4 15 -2 15 2 0 9
-7 16 -15z m-5629 -48 c-18 -18 -25 1 -11 30 l14 28 4 -24 c2 -13 -1 -28 -7
-34z m4061 32 c32 -12 56 -24 54 -26 -5 -5 -126 37 -126 43 0 7 13 4 72 -17z
m613 -8 c28 -16 77 -53 110 -83 l60 -55 -12 -68 c-7 -40 -21 -80 -33 -94 -11
-14 -27 -39 -35 -56 -12 -26 -74 -235 -108 -364 -6 -24 -17 -45 -24 -48 -6 -3
-31 9 -55 25 -24 17 -96 64 -160 106 l-118 77 0 57 c0 72 25 278 38 312 26 68
64 64 192 -20 51 -33 97 -60 102 -60 5 0 -39 32 -99 71 -105 70 -123 84 -123
103 0 16 76 82 121 104 58 29 84 28 144 -7z m162 7 c-3 -8 -6 -5 -6 6 -1 11 2
17 5 13 3 -3 4 -12 1 -19z m-3927 -8 c0 -5 -4 -10 -10 -10 -5 0 -10 5 -10 10
0 6 5 10 10 10 6 0 10 -4 10 -10z m4147 -4 c-3 -8 -2 -16 3 -18 11 -4 -19 -68
-31 -68 -9 0 -4 74 6 90 10 15 28 12 22 -4z m-187 -6 c0 -5 -4 -10 -10 -10 -5
0 -10 5 -10 10 0 6 5 10 10 10 6 0 10 -4 10 -10z m275 0 c-11 -18 51 -71 77
-66 29 5 48 -10 48 -38 0 -15 13 -31 40 -49 23 -14 38 -22 35 -17 -3 5 0 7 8
4 20 -7 50 -52 71 -103 16 -42 16 -44 -6 -90 -12 -26 -67 -93 -127 -155 l-106
-108 -77 81 c-85 92 -119 152 -125 226 -4 44 1 62 42 145 41 82 106 180 121
180 3 0 2 -5 -1 -10z m-4929 -172 c12 -133 -22 -362 -56 -383 -16 -10 -156
123 -171 163 -5 13 -9 50 -9 82 0 54 5 68 52 147 45 77 74 113 121 151 20 16
56 -75 63 -160z m4614 162 c0 -5 -7 -10 -16 -10 -8 0 -12 5 -9 10 3 6 10 10
16 10 5 0 9 -4 9 -10z m464 -28 c19 -27 19 -27 -12 2 -35 32 -38 38 -19 30 6
-3 21 -17 31 -32z m-504 18 c0 -5 -4 -10 -9 -10 -6 0 -13 5 -16 10 -3 6 1 10
9 10 9 0 16 -4 16 -10z m747 -42 c-3 -7 -5 -2 -5 12 0 14 2 19 5 13 2 -7 2
-19 0 -25z m-5152 -8 c3 -5 12 -44 20 -86 9 -42 33 -121 55 -175 22 -55 40
-106 40 -115 0 -19 -115 -227 -144 -261 l-21 -25 -27 21 c-37 30 -74 98 -82
153 -8 54 8 227 29 307 11 45 42 99 100 177 12 16 22 18 30 4z m32 -27 c-3
-10 -5 -4 -5 12 0 17 2 24 5 18 2 -7 2 -21 0 -30z m5421 -106 c14 -6 21 -16
17 -25 -3 -7 2 -23 10 -35 17 -24 19 -37 6 -37 -5 0 -22 20 -38 45 -15 25 -33
45 -39 45 -13 0 -19 105 -7 123 5 7 12 -13 18 -47 8 -46 15 -61 33 -69z m33
65 c6 -69 6 -104 -2 -84 -5 12 -15 25 -24 28 -8 3 -14 16 -13 29 1 13 6 21 10
19 4 -3 8 0 8 6 0 6 -6 13 -13 16 -7 2 -13 14 -14 25 -2 19 0 19 23 -6 13 -14
24 -29 25 -33z m-983 3 c12 -25 25 -45 29 -46 5 0 18 -2 31 -5 12 -2 22 1 22
8 0 6 3 9 6 5 11 -11 -8 -47 -25 -47 -19 0 -45 26 -79 81 -24 39 -27 49 -14
49 4 0 18 -20 30 -45z m1113 -50 c43 -108 73 -231 48 -195 -15 21 -3 -60 17
-120 29 -85 15 -206 -27 -240 -4 -3 -9 -32 -12 -65 -5 -39 -4 -53 2 -40 5 11
10 31 10 43 1 13 10 35 20 48 l19 24 4 -35 c9 -81 -29 -274 -66 -333 -16 -26
-28 5 -37 99 -5 52 -13 119 -18 149 -5 30 -10 84 -11 120 l-2 65 -18 -55 c-9
-30 -22 -56 -29 -58 -6 -2 -11 -8 -11 -13 0 -6 8 -5 20 1 26 14 27 10 33 -105
6 -101 -4 -151 -67 -315 -19 -51 -34 -95 -33 -97 2 -1 21 33 42 77 22 44 42
80 46 80 23 0 16 -97 -10 -149 -10 -20 -22 -50 -25 -66 -8 -39 -42 -95 -57
-95 -7 0 -10 24 -7 69 2 38 0 67 -4 65 -17 -11 -53 199 -44 254 3 19 23 85 45
147 l41 112 -15 54 c-29 103 -45 201 -46 277 -1 43 -3 68 -6 57 -2 -11 -6 -30
-9 -42 -6 -31 -29 -29 -42 5 -19 49 -22 92 -11 144 l11 51 24 -29 c14 -16 31
-42 40 -57 8 -15 19 -25 23 -22 5 2 14 -1 20 -9 13 -16 91 -237 91 -259 0 -8
7 -17 15 -21 8 -3 15 -12 15 -21 0 -8 5 -15 11 -15 6 0 8 10 5 23 l-6 22 11
-22 c14 -27 34 -31 24 -5 -4 9 -16 46 -26 82 -10 36 -33 105 -50 154 l-32 88
13 112 c7 61 14 118 16 126 1 8 3 19 3 25 2 20 21 -13 52 -90z m-351 41 c0 -7
-11 -18 -24 -24 -20 -9 -25 -8 -29 9 -6 22 3 25 22 7 11 -11 13 -9 8 9 -3 15
-1 20 9 16 8 -3 14 -11 14 -17z m-4900 -16 c-12 -16 -24 -30 -26 -30 -7 0 5
20 24 43 24 27 25 20 2 -13z m4772 -15 c0 -5 -5 -11 -11 -13 -6 -2 -11 4 -11
13 0 9 5 15 11 13 6 -2 11 -8 11 -13z m-1226 -181 c-3 -92 -9 -171 -12 -176
-7 -11 -123 89 -137 119 -15 34 32 122 97 178 28 24 53 45 55 45 2 0 1 -75 -3
-166z m1302 81 c59 -83 102 -169 102 -201 0 -31 -39 -155 -58 -184 -9 -14 -16
-31 -17 -37 0 -7 -4 -13 -10 -14 -10 -1 -28 42 -60 141 -22 68 -64 133 -82
126 -9 -4 -12 1 -9 17 30 143 40 179 52 192 9 8 11 15 5 15 -6 0 -11 5 -11 10
0 6 8 10 18 10 11 0 38 -28 70 -75z m-4810 43 c11 -13 39 -61 61 -107 59 -122
57 -146 -23 -305 -106 -210 -110 -211 -179 -45 -19 46 -47 110 -61 141 -38 83
-33 97 88 248 82 102 82 102 114 68z m-874 -13 c-4 -8 -10 -15 -15 -15 -5 0
-9 7 -9 15 0 8 7 15 15 15 9 0 12 -6 9 -15z m5794 -90 c-3 -3 -9 2 -12 12 -6
14 -5 15 5 6 7 -7 10 -15 7 -18z m-5807 -123 l32 -96 -17 -75 c-35 -152 -69
-272 -76 -264 -4 4 -21 46 -40 93 -47 123 -49 180 -11 313 18 59 37 120 42
135 10 26 11 26 24 8 8 -10 29 -62 46 -114z m5525 -64 c9 -17 36 -56 60 -87
24 -31 44 -64 44 -74 0 -22 -85 -240 -111 -285 -10 -18 -19 -46 -19 -63 0 -16
-4 -29 -8 -29 -22 0 -81 169 -84 238 -1 26 -12 51 -40 85 -21 27 -38 54 -38
61 0 7 12 23 26 37 14 13 34 40 45 60 20 40 72 89 95 89 7 0 21 -14 30 -32z
m-5335 -27 c67 -40 109 -89 109 -126 0 -12 -17 -60 -38 -106 -21 -46 -49 -119
-62 -161 -13 -43 -28 -78 -32 -78 -14 0 -110 107 -130 144 -22 40 -22 94 1
182 20 80 65 184 79 184 4 0 37 -17 73 -39z m5676 -10 c14 -18 28 -62 41 -129
17 -93 18 -104 3 -124 -9 -13 -16 -45 -16 -73 -1 -31 -8 -61 -21 -80 -19 -29
-19 -29 -22 -6 -2 13 1 28 7 34 17 17 13 24 -11 23 -19 -1 -25 7 -34 39 -6 22
-13 47 -16 55 -40 100 -41 106 -23 162 21 64 53 128 63 127 4 0 17 -13 29 -28z
m-4693 -40 c47 -22 86 -42 86 -44 0 -17 -52 -146 -105 -262 -35 -77 -66 -153
-70 -168 -8 -37 -25 -30 -50 19 -11 22 -34 60 -51 84 -60 87 -86 151 -79 194
7 47 79 196 103 214 24 19 67 10 166 -37z m3836 -6 c0 -8 -4 -15 -10 -15 -5 0
-10 7 -10 15 0 8 5 15 10 15 6 0 10 -7 10 -15z m-4304 -54 c3 -14 12 -51 20
-82 14 -59 10 -88 -21 -150 -21 -41 -61 -92 -52 -66 4 11 1 17 -8 17 -8 0 -15
5 -15 10 0 6 -8 10 -19 10 -10 0 -25 10 -33 22 -14 20 -13 28 2 74 10 28 34
85 55 127 39 79 59 91 71 38z m4184 9 c0 -5 -5 -10 -11 -10 -5 0 -7 5 -4 10 3
6 8 10 11 10 2 0 4 -4 4 -10z m360 -60 c31 -17 86 -112 113 -195 14 -44 33
-100 42 -125 22 -59 14 -144 -18 -178 -27 -29 -146 -100 -207 -123 -32 -12
-51 -14 -63 -8 -30 17 -117 201 -117 249 0 48 113 268 170 333 57 63 54 61 80
47z m-418 -29 c10 -9 18 -21 18 -27 0 -7 7 -14 15 -18 8 -3 15 -14 15 -25 0
-11 4 -21 10 -23 5 -1 12 -19 15 -38 l6 -35 -26 30 c-15 17 -33 44 -41 60 -22
48 -40 66 -58 59 -19 -7 -20 -1 -4 25 12 20 18 19 50 -8z m-4929 -132 c33 -59
37 -73 37 -141 0 -81 -8 -138 -20 -138 -9 0 -87 245 -95 298 -3 24 0 62 6 85
l11 42 13 -40 c6 -22 28 -70 48 -106z m496 118 c24 -10 46 -37 92 -118 34 -57
77 -137 96 -178 33 -68 35 -78 29 -140 -7 -84 -59 -193 -93 -198 -28 -3 -237
130 -276 176 -39 46 -41 65 -17 175 24 108 37 150 76 237 29 64 39 69 93 46z
m5345 -51 c25 -52 43 -243 27 -295 -8 -29 -110 -212 -128 -231 -7 -7 -22 22
-37 75 -39 132 -49 173 -47 203 2 38 85 248 109 275 25 28 55 17 76 -27z
m-961 -6 c25 -20 108 -143 144 -215 28 -54 61 -177 69 -251 l7 -61 -70 -59
c-38 -32 -106 -92 -151 -131 -45 -40 -86 -73 -91 -73 -5 0 -13 9 -16 21 -4 12
-36 50 -71 85 -114 115 -244 310 -244 367 0 43 43 110 107 167 41 37 263 170
284 170 4 0 18 -9 32 -20z m-2977 -27 c-18 -33 -21 -26 -6 13 6 15 13 24 16
21 3 -3 -1 -18 -10 -34z m-929 -35 c32 -37 181 -283 189 -312 8 -33 -6 -71
-58 -162 -44 -75 -76 -102 -97 -81 -8 8 -11 7 -11 -6 0 -10 -5 -26 -12 -36
-12 -19 -12 -19 -22 1 -6 12 -47 49 -92 82 -83 63 -124 111 -124 146 0 11 9
44 19 73 11 28 33 88 49 132 38 101 67 152 101 170 34 19 34 19 58 -7z m-859
-88 c7 -12 16 -18 21 -16 5 3 31 -18 59 -47 42 -45 51 -61 57 -105 4 -29 11
-52 16 -52 5 0 9 -17 9 -38 0 -49 -20 -152 -30 -152 -20 0 -116 110 -138 158
-20 44 -25 74 -28 163 -3 83 -1 109 9 109 6 0 18 -9 25 -20z m4932 -5 c7 -9 8
-15 2 -15 -5 0 -12 7 -16 15 -3 8 -4 15 -2 15 2 0 9 -7 16 -15z m40 -15 c0 -5
-5 -10 -11 -10 -5 0 -7 5 -4 10 3 6 8 10 11 10 2 0 4 -4 4 -10z m870 -24 c0
-3 -4 -8 -10 -11 -5 -3 -10 -1 -10 4 0 6 5 11 10 11 6 0 10 -2 10 -4z m-875
-27 c10 -30 0 -33 -13 -4 -6 14 -7 25 -2 25 5 0 12 -9 15 -21z m-4344 -30 c-5
-13 -10 -19 -10 -12 -1 15 10 45 15 40 3 -2 0 -15 -5 -28z m3693 12 c3 -4 0
-16 -7 -25 -14 -19 -47 -12 -47 9 0 20 44 34 54 16z m1555 -238 c1 -24 -3 -33
-15 -33 -14 0 -16 8 -10 50 4 31 3 50 -3 50 -15 0 -26 -71 -14 -89 16 -25 -47
-188 -67 -176 -6 4 -10 1 -10 -5 0 -6 -10 -34 -22 -62 -18 -43 -29 -54 -72
-74 -61 -28 -86 -30 -86 -6 0 23 25 117 45 171 8 24 13 52 9 63 -4 13 -2 18 4
14 5 -3 19 18 31 47 12 28 29 62 39 74 l17 21 31 -34 c17 -19 28 -34 24 -34
-5 0 -6 -9 -3 -20 3 -12 11 -19 17 -17 14 5 8 46 -10 64 -30 30 -28 61 6 99
17 20 37 48 43 61 10 23 13 19 29 -53 9 -44 17 -94 17 -111z m-5893 56 c20
-41 64 -117 99 -170 70 -104 95 -181 95 -287 l0 -57 -58 64 c-97 109 -132 192
-132 311 0 62 -22 153 -41 175 -9 9 -13 52 -4 43 3 -2 21 -38 41 -79z m5554
12 c6 -30 13 -104 16 -166 6 -93 4 -117 -10 -147 -18 -38 -78 -99 -108 -111
-10 -3 -18 -13 -18 -22 0 -8 -4 -15 -9 -15 -4 0 -28 -15 -52 -34 -39 -29 -46
-31 -58 -19 -19 21 -91 184 -91 207 0 10 33 55 73 100 41 44 104 122 142 171
95 125 98 126 115 36z m540 49 c0 -11 7 -20 16 -20 10 0 14 -6 10 -17 -2 -10
-10 -44 -16 -77 -12 -59 -55 -165 -82 -200 -13 -17 -14 -15 -13 25 3 48 27
152 50 212 8 20 15 51 15 67 0 17 5 30 10 30 6 0 10 -9 10 -20z m-6175 -105
c7 -63 15 -85 16 -44 0 13 22 -46 48 -131 46 -149 50 -157 103 -215 67 -73 96
-125 108 -196 11 -71 18 -87 40 -94 21 -7 94 -84 86 -92 -8 -9 -78 50 -110 93
-17 23 -55 69 -84 104 -51 60 -120 183 -163 292 -27 69 -59 229 -59 297 0 69
7 63 15 -14z m755 -50 c11 -13 10 -14 -4 -9 -9 3 -16 10 -16 15 0 13 6 11 20
-6z m-390 1 c0 -2 -7 -9 -15 -16 -12 -10 -15 -10 -15 4 0 9 7 16 15 16 8 0 15
-2 15 -4z m421 -53 c-8 -15 -10 -15 -11 -2 0 17 10 32 18 25 2 -3 -1 -13 -7
-23z m5198 -93 c1 -50 -5 -78 -24 -118 -30 -64 -31 -75 -5 -43 15 18 20 19 20
7 0 -20 5 -20 35 0 14 9 25 13 25 10 0 -4 -16 -39 -36 -79 -48 -95 -131 -217
-199 -292 l-54 -60 68 140 c75 153 106 245 46 136 -39 -72 -78 -118 -109 -127
-12 -3 -28 -14 -36 -24 -8 -10 -32 -28 -53 -39 l-37 -21 29 59 c17 32 43 78
59 102 16 24 43 71 61 104 17 33 51 81 75 107 24 26 47 57 51 70 25 81 47 127
59 122 9 -3 12 5 10 28 -3 30 -3 31 5 8 5 -14 9 -54 10 -90z m-5619 85 c0 -8
-2 -15 -4 -15 -2 0 -6 7 -10 15 -3 8 -1 15 4 15 6 0 10 -7 10 -15z m4919 1 c9
-10 9 -24 2 -48 -5 -18 -10 -25 -10 -15 -1 9 -5 17 -11 17 -13 0 -32 38 -25
50 9 14 31 12 44 -4z m-3518 -29 c-10 -9 -11 -8 -5 6 3 10 9 15 12 12 3 -3 0
-11 -7 -18z m-896 3 c3 -5 1 -10 -4 -10 -6 0 -11 5 -11 10 0 6 2 10 4 10 3 0
8 -4 11 -10z m50 -38 c-3 -3 -11 0 -18 7 -9 10 -8 11 6 5 10 -3 15 -9 12 -12z
m3739 -54 l37 -63 -6 -84 c-3 -47 -12 -96 -20 -110 -19 -37 -120 -131 -141
-131 -35 0 -229 226 -218 254 11 28 262 196 295 196 8 0 32 -28 53 -62z m626
-8 c0 -5 -4 -10 -10 -10 -5 0 -10 5 -10 10 0 6 5 10 10 10 6 0 10 -4 10 -10z
m-4949 -45 c15 -12 71 -41 125 -65 226 -97 211 -89 229 -134 28 -70 76 -316
61 -316 -13 0 -89 38 -145 73 -89 55 -183 137 -219 192 -32 48 -95 197 -107
252 -6 29 -4 32 12 26 10 -3 30 -16 44 -28z m1420 -5 c63 -42 211 -162 222
-180 7 -11 -2 -33 -31 -80 -23 -36 -44 -78 -48 -95 -8 -35 -31 -65 -51 -65
-40 0 -207 111 -239 159 l-25 39 16 63 c21 80 81 189 105 189 4 0 26 -13 51
-30z m3461 11 c27 -21 88 -129 88 -155 0 -9 5 -16 11 -16 6 0 9 -32 6 -94 l-4
-93 -64 -81 c-61 -76 -129 -128 -129 -99 0 6 -9 1 -19 -12 -17 -22 -19 -23
-28 -6 -9 16 -16 17 -54 7 -38 -10 -46 -9 -56 5 -7 9 -13 22 -13 28 0 6 -13
45 -30 88 l-30 78 26 52 c68 135 216 317 258 317 8 0 24 -9 38 -19z m-207 -1
c3 -5 -1 -10 -10 -10 -9 0 -13 5 -10 10 3 6 8 10 10 10 2 0 7 -4 10 -10z
m-275 -20 c14 -26 3 -45 -16 -29 -16 13 -19 49 -4 49 5 0 14 -9 20 -20z
m-4077 -72 c-3 -15 -9 -25 -14 -22 -11 6 -12 48 -2 57 12 13 22 -8 16 -35z
m195 19 c10 -10 28 -17 40 -17 17 0 42 -25 42 -43 0 -12 -61 8 -85 29 -15 13
-36 26 -46 29 -11 4 -19 10 -19 15 0 14 48 5 68 -13z m612 -12 c0 -8 -4 -15
-9 -15 -13 0 -22 16 -14 24 11 11 23 6 23 -9z m3413 -7 c8 -30 1 -35 -23 -13
-25 23 -26 35 -1 35 11 0 21 -9 24 -22z m-3882 -45 c-9 -16 -10 -14 -11 12 0
21 3 26 11 18 8 -8 8 -16 0 -30z m-172 0 c59 -34 165 -109 181 -127 14 -17 29
-197 18 -225 -17 -48 -83 -30 -169 47 -76 68 -109 152 -109 277 0 65 10 69 79
28z m353 -24 c18 -16 74 -58 123 -92 50 -35 96 -75 103 -90 8 -17 14 -71 15
-140 2 -111 2 -112 -22 -115 -57 -8 -306 76 -334 113 -4 5 -6 60 -4 120 3 100
9 128 43 210 7 18 6 18 -9 6 -18 -15 -21 -12 -11 14 9 23 54 11 96 -26z m3094
13 c31 -26 108 -121 143 -176 37 -60 41 -119 10 -186 -16 -35 -22 -41 -29 -30
-7 10 -10 11 -10 3 0 -7 -7 -13 -15 -13 -8 0 -15 4 -15 10 0 13 -89 -52 -89
-66 -1 -7 6 -11 15 -10 29 2 27 -23 -5 -55 -27 -27 -28 -30 -8 -24 19 5 18 3
-8 -20 l-30 -27 34 17 c30 15 35 15 49 2 19 -19 8 -67 -15 -67 -9 0 -13 -3
-10 -6 3 -4 2 -15 -4 -25 -7 -15 -6 -21 6 -25 8 -3 15 -9 15 -13 0 -10 -77
-41 -103 -41 -12 0 -28 -4 -34 -8 -7 -4 17 -6 52 -4 55 4 65 2 65 -12 0 -9 -8
-20 -17 -23 -10 -4 -34 -19 -53 -35 -19 -15 -41 -28 -50 -28 -8 0 -38 -16 -65
-36 -28 -20 -75 -47 -105 -61 -30 -14 -65 -34 -78 -46 -31 -29 -84 -45 -111
-35 -13 4 -27 6 -32 2 -5 -3 -9 -1 -9 4 0 17 184 179 211 185 14 4 31 18 37
32 7 14 22 30 34 35 19 7 19 9 5 9 -10 1 -15 6 -12 11 12 19 -7 10 -56 -26
l-49 -36 -125 7 c-69 4 -125 11 -125 15 0 4 12 28 26 54 25 44 28 46 63 42 35
-5 35 -5 9 6 -34 15 -35 26 -3 88 14 27 25 54 25 61 0 21 83 198 100 214 17
15 23 14 87 -20 37 -21 73 -40 78 -45 6 -4 18 -10 29 -14 13 -4 7 7 -19 40
-89 108 -87 215 5 349 l31 45 67 0 c49 0 73 -5 88 -18z m1450 6 c3 -4 0 -8 -5
-8 -6 0 -11 -5 -11 -10 0 -6 -20 -58 -44 -115 -39 -93 -108 -212 -140 -240 -6
-6 -16 -19 -22 -30 -7 -11 -19 -19 -27 -17 -11 2 -14 -3 -10 -17 16 -60 -88
-154 -262 -237 -164 -78 -176 -80 -137 -23 82 123 120 166 215 236 32 24 62
56 68 71 26 65 77 264 72 280 -2 10 3 24 11 31 9 8 16 10 16 6 0 -4 7 -1 16 6
9 7 22 14 29 15 7 1 25 10 41 20 52 35 176 55 190 32z m-3522 -67 c34 -22 78
-72 150 -174 l48 -68 -42 -82 c-24 -45 -59 -99 -79 -120 -43 -45 -40 -45 -194
20 -137 57 -151 75 -143 178 6 86 40 181 75 203 24 17 127 60 145 61 5 1 23
-8 40 -18z m3166 -22 c0 -6 -4 -7 -10 -4 -5 3 -10 11 -10 16 0 6 5 7 10 4 6
-3 10 -11 10 -16z m-4986 -47 c21 -31 70 -84 108 -116 69 -59 106 -102 95
-112 -7 -7 -130 65 -174 101 -18 15 -33 33 -33 40 0 7 -6 15 -13 18 -11 4 -37
87 -37 118 0 21 17 5 54 -49z m4443 -28 c3 -8 -2 -23 -11 -32 -14 -15 -18 -15
-26 -3 -10 16 4 51 21 51 5 0 12 -7 16 -16z m-2017 -3 c0 -5 25 -50 55 -99 80
-131 77 -147 -42 -234 -63 -47 -145 -118 -135 -118 4 0 12 4 17 9 25 25 369
151 411 151 23 0 24 -4 24 -58 0 -64 -25 -277 -35 -304 -5 -14 -22 -18 -83
-21 l-77 -3 84 -2 84 -2 -7 -82 c-8 -98 -20 -113 -80 -103 -44 6 -67 28 -101
95 -40 79 -41 90 -8 90 19 0 24 3 14 9 -7 5 -21 6 -31 4 -10 -3 -24 3 -31 14
-18 24 -189 122 -189 108 0 -4 107 -67 133 -77 37 -15 4 -28 -72 -28 l-79 0
-20 48 c-35 81 -37 100 -11 104 12 2 25 10 27 18 5 13 3 13 -12 1 -12 -11 -22
-11 -40 -3 -46 21 -140 316 -112 351 15 20 266 140 294 140 12 1 22 -3 22 -8z
m821 -41 c25 -14 24 -36 -2 -50 -15 -9 -24 -8 -36 2 -14 11 -15 11 -11 -2 3
-8 1 -26 -4 -39 -6 -16 -4 -29 4 -39 11 -13 10 -15 -6 -9 -10 4 -25 2 -32 -4
-20 -17 -33 -2 -30 36 3 26 14 44 47 75 50 46 44 43 70 30z m263 -31 c13 -12
-10 -59 -29 -59 -9 0 -13 5 -10 10 3 6 1 10 -4 10 -6 0 -11 8 -11 18 0 10 -7
27 -15 39 l-16 22 38 -15 c21 -9 42 -20 47 -25z m996 -5 c17 -19 29 -159 18
-199 -10 -38 -51 -60 -70 -38 -9 11 -9 39 -1 123 13 132 22 152 53 114z m873
-16 c-5 -7 -20 -39 -33 -71 -18 -46 -41 -75 -114 -146 -106 -103 -295 -270
-252 -223 33 35 29 41 -9 16 -41 -27 -32 -8 25 54 15 15 41 50 59 77 19 28 48
66 65 85 17 19 23 28 14 21 -12 -9 -18 -10 -18 -2 0 6 6 12 13 12 6 1 17 2 22
3 20 2 105 81 105 96 0 10 22 28 56 44 30 15 58 34 61 42 3 8 8 13 11 10 3 -3
0 -11 -5 -18z m-443 -8 c0 -5 -5 -10 -11 -10 -5 0 -7 5 -4 10 3 6 8 10 11 10
2 0 4 -4 4 -10z m-507 -24 c9 -23 -10 -135 -28 -162 -8 -13 -12 -23 -8 -22 8
3 13 -5 13 -21 0 -26 -373 -203 -384 -183 -13 25 -3 133 19 195 36 106 53 119
220 173 110 36 160 42 168 20z m-3184 -50 c58 -19 141 -42 184 -52 78 -17 79
-18 102 -64 13 -25 31 -73 40 -105 28 -99 45 -148 63 -180 31 -53 20 -65 -58
-65 -51 0 -100 10 -201 41 -74 23 -147 48 -163 56 -15 8 -40 16 -54 17 -27 3
-39 25 -41 75 -1 22 2 23 39 18 22 -3 40 -4 40 -2 0 1 -17 14 -39 28 -37 25
-39 29 -50 107 -11 71 -9 128 6 153 7 12 21 9 132 -27z m-728 -56 c6 0 24 -9
39 -20 26 -18 30 -19 44 -4 19 19 42 13 78 -21 32 -30 49 -60 82 -147 38 -102
38 -104 29 -92 -4 6 -28 22 -53 34 -143 72 -310 223 -310 280 0 6 17 2 40 -10
21 -11 44 -20 51 -20z m1509 21 c0 -6 -4 -13 -10 -16 -5 -3 -10 1 -10 9 0 9 5
16 10 16 6 0 10 -4 10 -9z m998 -21 c7 -11 9 -20 4 -20 -10 0 -32 22 -32 32 0
15 15 8 28 -12z m-2670 -2 c38 -9 63 -27 134 -98 48 -47 115 -102 149 -121 33
-19 82 -54 109 -79 34 -33 105 -74 258 -150 118 -58 206 -108 199 -111 -16 -9
-120 8 -165 27 -28 11 -37 12 -43 2 -6 -9 -14 -5 -29 14 -26 34 -227 199 -260
215 -14 6 -65 14 -115 17 l-90 5 -75 78 c-42 43 -97 105 -123 138 -40 52 -44
61 -29 67 24 9 28 9 80 -4z m-68 -93 c27 -33 71 -82 99 -110 58 -56 63 -70 24
-60 -16 4 -39 9 -52 11 -29 3 -111 82 -151 144 -18 28 -28 57 -28 77 l1 32 29
-17 c17 -9 52 -44 78 -77z m2425 85 c-3 -5 -12 -10 -20 -10 -8 0 -17 5 -20 10
-4 6 5 10 20 10 15 0 24 -4 20 -10z m-629 -50 c7 -14 19 -54 27 -90 14 -59 13
-65 -2 -76 -15 -12 -14 -13 2 -20 11 -4 30 -18 43 -30 22 -23 22 -29 0 -25 -5
1 -4 -5 3 -13 7 -9 17 -13 22 -10 5 3 7 -1 4 -8 -6 -15 33 -83 42 -74 4 4 1
12 -5 18 -14 14 -16 32 -3 24 5 -3 14 -20 20 -36 6 -18 6 -28 1 -25 -6 4 -10
1 -10 -4 0 -6 6 -11 13 -11 14 0 46 -47 94 -137 l34 -63 -61 0 c-53 0 -66 4
-98 30 -40 32 -144 119 -196 163 -41 35 -230 100 -266 92 -19 -4 -31 1 -46 17
-11 13 -20 26 -21 31 -1 4 -3 11 -6 15 -2 4 -2 1 0 -6 5 -23 -21 -7 -34 19
-18 36 -31 133 -22 158 11 28 44 27 117 -3 91 -38 116 -40 165 -17 23 11 63
41 87 66 50 51 77 55 96 15z m1888 5 c-7 -16 -24 -21 -24 -6 0 8 7 13 27 20 1
1 0 -6 -3 -14z m-1043 -30 c49 -19 93 -35 98 -35 5 0 11 9 14 20 3 11 12 20
20 20 14 0 189 -138 214 -170 19 -23 15 -51 -7 -57 -11 -3 -20 -9 -20 -14 0
-5 -6 -9 -13 -9 -7 0 -34 -13 -60 -30 -26 -16 -60 -30 -75 -31 -15 0 -36 -4
-47 -9 -15 -7 -9 -9 25 -9 31 -1 61 7 94 25 28 15 62 30 78 35 27 7 28 6 22
-19 -8 -34 -22 -57 -101 -164 -82 -110 -93 -118 -171 -111 -60 6 -62 6 -55 32
3 14 21 58 39 96 42 90 44 101 19 97 -11 -2 -62 -3 -113 -2 -100 0 -122 -15
-25 -18 79 -3 115 -11 109 -25 -2 -7 -18 -43 -35 -82 -16 -38 -32 -77 -34 -85
-4 -12 -18 -14 -72 -12 l-68 4 6 136 c6 127 33 410 42 440 6 18 19 15 116 -23z
m-2152 15 c10 -5 51 -18 91 -29 67 -18 75 -18 85 -4 7 10 20 14 33 11 11 -3
30 1 41 9 19 13 22 12 27 -2 4 -9 2 -32 -3 -50 -6 -18 -7 -37 -2 -42 4 -4 17
-36 27 -70 23 -74 25 -73 -83 -38 -114 37 -180 90 -250 198 -16 25 -16 27 0
27 9 0 24 -4 34 -10z m2386 -20 c36 -17 42 -17 57 -3 37 33 81 -14 52 -56 -14
-20 -16 -20 -47 -5 -18 9 -44 26 -58 38 -15 12 -35 26 -45 33 -30 19 -3 14 41
-7z m1419 -15 c-4 -8 -10 -13 -14 -10 -4 3 -11 -2 -14 -11 -5 -13 0 -15 36 -9
24 4 69 16 100 26 56 18 98 24 98 14 0 -11 -25 -50 -39 -61 -11 -9 -18 -8 -28
1 -14 15 -62 7 -113 -19 -18 -9 -37 -16 -41 -16 -5 0 -25 -11 -45 -25 -20 -14
-50 -25 -67 -25 -29 0 -29 1 -23 42 8 52 10 54 43 63 14 3 38 15 51 26 30 23
64 26 56 4z m-181 -37 c8 -23 -11 -140 -25 -153 -17 -16 -94 -38 -238 -70 -63
-14 -133 -29 -155 -34 -44 -10 -55 -7 -37 11 7 7 12 19 12 28 0 21 34 53 58
55 19 2 36 9 184 76 58 26 124 59 145 73 44 29 49 30 56 14z m337 -48 c0 -16
-117 -179 -145 -202 -40 -32 -104 -59 -146 -61 -91 -5 -41 141 71 204 24 14
36 27 33 36 -4 11 3 12 33 8 25 -3 55 2 84 13 43 18 70 18 70 2z m179 -99
c-13 -17 -28 -31 -33 -31 -6 0 -4 -4 4 -10 20 -12 -7 -41 -85 -91 -44 -28 -63
-35 -72 -27 -10 8 -12 7 -7 -6 5 -12 -7 -22 -50 -41 -31 -14 -69 -25 -84 -24
l-27 1 25 7 c16 5 24 13 22 24 -2 11 18 30 60 57 35 22 58 40 53 40 -6 0 -16
-5 -23 -12 -15 -15 -24 -6 -16 16 4 9 22 23 41 31 44 19 52 19 27 1 -10 -8
-16 -17 -13 -21 9 -9 106 52 113 71 3 9 11 14 18 12 6 -2 22 7 35 20 33 32 40
21 12 -17z m-4500 5 c28 -12 48 -26 44 -29 -3 -4 10 -13 30 -22 20 -8 72 -39
117 -69 78 -52 182 -106 380 -199 81 -38 163 -68 255 -91 11 -3 -2 -3 -30 0
-27 3 -86 16 -130 30 -97 29 -433 192 -530 257 -138 92 -211 147 -193 147 3 0
29 -11 57 -24z m609 -38 c103 -36 132 -52 239 -132 68 -50 121 -95 120 -101
-8 -24 -56 -12 -199 50 -266 116 -373 182 -352 217 11 18 82 6 192 -34z m-377
1 c81 -12 83 -12 163 -82 45 -39 101 -89 126 -112 32 -30 57 -44 85 -49 66
-10 129 -23 150 -31 16 -5 17 -5 5 4 -12 9 -10 11 12 11 14 0 32 2 40 5 7 3
22 -2 33 -10 19 -15 18 -16 -22 -11 -67 10 -53 -14 32 -54 41 -19 70 -37 65
-38 -18 -7 -224 59 -310 98 -47 21 -134 59 -195 85 -117 49 -175 84 -249 153
-47 43 -57 58 -32 49 8 -3 51 -11 97 -18z m3639 -48 c0 -5 -14 -14 -31 -21
-17 -7 -49 -28 -70 -46 -50 -41 -400 -224 -443 -231 -20 -3 -36 -1 -40 6 -10
15 18 37 134 107 52 32 113 72 135 90 28 22 55 33 92 38 28 3 89 20 135 36 98
34 88 32 88 21z m-2945 -22 c61 -17 135 -50 130 -59 -6 -10 54 -35 63 -26 3 4
0 11 -8 16 -32 21 2 8 52 -18 199 -107 336 -192 308 -192 -6 0 -26 11 -43 24
-44 33 -117 68 -117 57 0 -6 -16 -7 -37 -4 -27 5 -34 3 -29 -6 5 -7 15 -10 23
-7 8 3 11 1 8 -4 -3 -6 1 -10 11 -10 9 0 44 -10 78 -22 47 -18 56 -24 37 -26
-28 -4 -107 16 -125 32 -6 6 -43 27 -80 46 -37 19 -85 49 -106 67 -27 23 -45
31 -66 29 -16 -2 -35 1 -41 6 -9 7 -13 7 -13 -1 0 -6 5 -11 10 -11 6 0 10 -4
10 -10 0 -5 -3 -10 -8 -10 -9 0 -140 119 -131 120 5 0 60 -39 97 -70 8 -8 12
-8 12 0 0 6 5 8 12 4 8 -5 9 -2 5 10 -5 14 -3 15 13 6 23 -12 50 -13 50 -1 0
8 -24 17 -71 26 -23 5 -106 44 -94 45 6 0 28 -5 50 -11z m535 -24 c92 -31 124
-53 225 -155 l80 -80 -55 0 c-52 0 -60 4 -150 69 -171 124 -204 151 -188 151
11 0 15 6 11 20 -7 25 -11 25 77 -5z m2446 13 c-9 -5 -20 -7 -25 -3 -5 3 -12
1 -16 -5 -3 -5 -11 -10 -17 -10 -7 0 -7 4 1 13 6 8 25 14 42 14 23 0 27 -3 15
-9z m54 -3 c-7 -8 -16 -15 -21 -15 -5 0 -6 7 -3 15 4 8 13 15 21 15 13 0 13
-3 3 -15z m272 -7 c-7 -7 -12 -8 -12 -2 0 14 12 26 19 19 2 -3 -1 -11 -7 -17z
m-2866 -55 c124 -100 174 -138 212 -163 l43 -28 -46 -4 c-43 -3 -51 1 -122 55
-42 33 -111 74 -153 92 -123 53 -144 70 -92 78 64 10 123 -1 158 -30z m685 20
c9 -10 34 -57 57 -105 l41 -88 -78 0 c-72 0 -79 2 -104 28 -19 20 -25 34 -21
47 6 14 4 16 -6 10 -9 -5 -11 -4 -6 4 4 6 -6 27 -23 48 -41 50 -39 61 12 65
23 2 58 4 78 6 24 2 40 -3 50 -15z m981 2 c32 -4 61 -11 64 -17 4 -6 -6 -22
-22 -36 -16 -14 -62 -54 -102 -91 -40 -36 -77 -66 -82 -65 -6 1 -38 2 -72 3
-96 2 -99 8 -39 87 112 149 98 136 150 130 25 -3 72 -8 103 -11z m508 -3 c0
-4 -42 -31 -92 -61 -51 -30 -124 -75 -162 -100 -54 -35 -81 -46 -120 -49 l-51
-4 20 23 c11 12 65 44 120 70 55 26 123 63 151 82 28 19 62 37 75 40 41 7 59
7 59 -1z m410 -1 c0 -5 -6 -9 -12 -8 -35 1 -49 -4 -42 -15 4 -7 3 -8 -4 -4
-20 12 -58 -4 -59 -26 -2 -19 -1 -19 11 -3 7 10 19 15 27 12 10 -4 9 -6 -4 -6
-14 -1 -17 -6 -12 -22 6 -18 4 -21 -13 -17 -14 4 -19 2 -15 -7 11 -29 -199
-126 -266 -124 -26 1 -29 3 -12 6 23 5 51 25 51 37 0 3 -8 3 -17 0 -15 -5 -15
-4 -3 5 26 18 3 23 -30 6 -18 -9 -34 -14 -37 -11 -6 6 279 147 345 171 43 16
92 19 92 6z m232 -28 c4 -13 -1 -18 -19 -18 -12 0 -23 2 -23 4 0 3 31 29 36
31 1 0 4 -8 6 -17z m-87 -13 c-3 -5 -12 -10 -18 -10 -7 0 -6 4 3 10 19 12 23
12 15 0z m-83 -22 c24 24 61 12 72 -23 5 -17 -2 -24 -37 -39 -23 -10 -55 -20
-70 -22 -15 -2 -87 -27 -160 -55 -73 -28 -152 -52 -177 -54 -41 -3 -32 3 110
74 85 42 173 89 195 104 29 19 41 23 47 14 6 -9 10 -9 20 1z m-2989 -23 c-3
-9 -8 -14 -10 -11 -3 3 -2 9 2 15 9 16 15 13 8 -4z m48 -43 c-7 -2 -18 1 -23
6 -8 8 -4 9 13 5 13 -4 18 -8 10 -11z m51 -52 c61 -26 65 -25 31 6 -27 25 -26
25 14 -3 26 -17 36 -29 27 -31 -8 -2 -12 -8 -9 -13 4 -5 2 -9 -4 -9 -5 0 -12
4 -16 9 -3 5 -33 19 -68 30 -75 26 -92 35 -83 49 4 7 15 6 34 -3 15 -8 48 -24
74 -35z m2828 -1 c-29 -24 -171 -89 -197 -89 -7 0 214 115 227 118 3 1 -11
-12 -30 -29z m-273 -226 c-3 -10 -5 -4 -5 12 0 17 2 24 5 18 2 -7 2 -21 0 -30z
m-2826 -10 c13 -16 12 -17 -3 -4 -10 7 -18 15 -18 17 0 8 8 3 21 -13z m88 -39
c9 -10 -53 6 -63 17 -6 5 4 5 24 -1 18 -5 35 -12 39 -16z m54 -1 c-7 -2 -21
-2 -30 0 -10 3 -4 5 12 5 17 0 24 -2 18 -5z m-23 -98 c10 -12 10 -15 -4 -15
-9 0 -16 7 -16 15 0 8 2 15 4 15 2 0 9 -7 16 -15z m2654 -1 c9 -24 7 -52 -5
-60 -7 -4 -10 4 -8 22 2 16 0 35 -4 42 -5 6 -4 12 1 12 6 0 13 -7 16 -16z
m-853 -67 c-10 -9 -11 -8 -5 6 3 10 9 15 12 12 3 -3 0 -11 -7 -18z m-903 -12
c7 -14 12 -39 12 -55 0 -32 -19 -80 -31 -80 -14 0 -40 46 -46 83 -10 66 40
106 65 52z m1256 9 c10 -26 7 -134 -4 -134 -11 0 -11 -1 -13 88 -2 60 5 78 17
46z m-2140 -7 c3 3 6 -8 6 -26 0 -19 4 -30 10 -26 6 4 10 -8 10 -29 0 -19 -4
-38 -10 -41 -5 -3 -10 -42 -10 -86 0 -72 3 -82 25 -104 l24 -25 -34 0 c-61 0
-65 13 -65 191 0 153 1 159 19 150 10 -6 21 -7 25 -4z m1846 -19 c0 -19 -2
-20 -10 -8 -13 19 -13 30 0 30 6 0 10 -10 10 -22z m460 -66 c0 -27 -6 -56 -13
-66 -12 -16 -14 -16 -26 -2 -10 12 -12 30 -6 64 4 26 7 57 6 69 -1 23 -1 23
19 3 14 -14 20 -33 20 -68z m330 -81 c-7 -123 -11 -146 -28 -163 -20 -20 -20
-20 -14 7 3 16 1 25 -4 22 -6 -3 -8 24 -7 66 6 121 14 175 29 188 8 6 14 21
14 33 1 17 2 18 10 5 5 -9 5 -74 0 -158z m-693 107 c-2 -13 -4 -5 -4 17 -1 22
1 32 4 23 2 -10 2 -28 0 -40z m30 30 c-3 -8 -6 -5 -6 6 -1 11 2 17 5 13 3 -3
4 -12 1 -19z m-1753 -61 c4 -63 -4 -87 -18 -51 -13 34 -5 136 10 121 2 -1 5
-33 8 -70z m282 -31 c5 -15 3 -18 -5 -10 -6 6 -14 35 -16 65 l-4 54 9 -44 c5
-23 12 -53 16 -65z m2041 37 c-2 -16 -4 -5 -4 22 0 28 2 40 4 28 2 -13 2 -35
0 -50z m-2184 -5 c2 -26 1 -45 -4 -42 -5 3 -9 29 -8 57 1 59 5 54 12 -15z
m334 40 c-3 -8 -6 -5 -6 6 -1 11 2 17 5 13 3 -3 4 -12 1 -19z m1723 -47 c0
-39 -4 -73 -10 -76 -6 -4 -10 22 -10 69 0 44 4 76 10 76 6 0 10 -30 10 -69z
m-983 17 c-3 -7 -5 -2 -5 12 0 14 2 19 5 13 2 -7 2 -19 0 -25z m240 -15 c-3
-10 -5 -4 -5 12 0 17 2 24 5 18 2 -7 2 -21 0 -30z m160 15 c-3 -8 -6 -5 -6 6
-1 11 2 17 5 13 3 -3 4 -12 1 -19z m150 -10 c-3 -7 -5 -2 -5 12 0 14 2 19 5
13 2 -7 2 -19 0 -25z m-1296 -41 c-13 -13 -14 5 -3 43 l7 25 3 -29 c2 -16 -1
-33 -7 -39z m-149 11 c-8 -8 -9 -4 -5 13 4 13 8 18 11 10 2 -7 -1 -18 -6 -23z
m2016 -273 c1 -1 -11 -43 -27 -93 -30 -94 -78 -192 -93 -192 -11 0 -10 3 7 36
19 36 2 44 -25 12 l-20 -23 16 40 c9 22 21 51 26 65 10 24 11 24 18 5 7 -15 9
-16 9 -4 1 9 11 19 22 22 16 4 20 11 15 23 -4 10 -2 20 3 24 15 9 1 50 -18 50
-10 0 -17 9 -17 26 -2 24 0 25 40 19 22 -4 42 -8 44 -10z m-2472 -8 c10 -10
26 -9 20 1 -3 5 0 9 7 9 7 0 13 -11 13 -24 1 -12 -2 -21 -6 -18 -14 9 -22 -14
-11 -32 10 -17 10 -16 11 2 1 11 7 1 15 -23 7 -23 11 -52 9 -65 -2 -12 -1 -16
2 -9 4 8 18 -7 38 -40 17 -29 40 -66 50 -83 l18 -30 -21 24 c-12 13 -25 21
-28 17 -4 -4 -2 -10 4 -14 6 -4 11 -20 11 -35 0 -15 8 -38 18 -50 10 -12 4 -8
-14 8 -67 60 -155 233 -175 341 -5 26 -3 30 13 29 11 -1 23 -4 26 -8z m691
-713 c-3 -3 -12 -4 -19 -1 -8 3 -5 6 6 6 11 1 17 -2 13 -5z m653 -1465 c-15
-54 -21 -47 -10 11 5 25 10 72 12 105 l2 60 3 -67 c2 -37 -1 -86 -7 -109z
m-22 77 c2 -16 -4 -56 -13 -88 -9 -32 -14 -66 -11 -76 7 -23 -14 -56 -39 -60
-35 -6 -90 -8 -102 -4 -19 6 -15 126 5 192 l18 55 54 6 c80 9 85 7 88 -25z
m-171 2 c-3 -8 -6 -5 -6 6 -1 11 2 17 5 13 3 -3 4 -12 1 -19z m-208 -557 c39
-39 81 -104 81 -125 0 -21 22 -91 32 -101 11 -11 -50 -171 -75 -197 l-26 -26
19 -25 c11 -14 20 -32 20 -41 0 -9 6 -16 14 -16 10 0 13 -10 9 -35 -7 -52 18
-43 71 28 40 52 66 50 96 -10 22 -44 22 -47 6 -78 -14 -25 -15 -39 -7 -76 23
-96 6 -199 -32 -199 -27 0 -132 113 -163 176 -20 39 -33 53 -53 57 -53 11
-101 84 -101 155 0 14 -8 26 -22 31 -51 19 -79 75 -99 193 -11 69 -11 84 5
135 22 69 53 114 110 154 46 34 81 34 115 0z m220 -6 c22 -13 42 -29 46 -35
12 -20 57 -10 80 17 19 21 33 26 70 27 39 1 51 -3 70 -26 13 -16 33 -28 44
-28 31 0 12 -41 -31 -65 -66 -37 -98 -59 -98 -67 0 -4 -7 -8 -15 -8 -7 0 -18
-6 -22 -12 -12 -19 -50 -38 -76 -38 -95 0 -200 161 -157 241 14 26 42 24 89
-6z m493 8 c57 -35 120 -219 104 -306 -4 -21 -20 -53 -37 -72 -20 -22 -33 -50
-38 -83 -8 -53 -57 -140 -95 -170 -12 -9 -35 -38 -50 -64 -15 -27 -31 -48 -36
-48 -4 0 -33 -25 -64 -55 -30 -30 -60 -55 -66 -55 -10 0 -49 -30 -82 -65 -19
-20 -19 -20 -39 4 -17 21 -19 40 -19 202 0 182 9 233 39 227 14 -3 44 -66 55
-118 3 -14 12 -34 21 -45 15 -20 15 -20 40 10 14 17 25 35 25 41 0 6 7 17 15
24 12 10 9 17 -20 45 -30 31 -32 37 -25 70 5 20 13 49 18 63 5 15 15 46 21 69
12 45 44 83 70 84 19 0 58 47 62 74 1 11 -1 36 -5 57 -9 42 -3 66 25 102 24
31 40 32 81 9z m-405 -279 c4 -12 -64 -27 -79 -18 -5 3 -4 12 3 20 14 17 70
15 76 -2z m-414 -379 c22 -27 59 -70 81 -95 l41 -45 -43 40 c-62 56 -158 178
-187 236 -39 75 -30 71 21 -11 26 -41 65 -97 87 -125z"/>
<path d="M4070 8425 c0 -8 2 -15 4 -15 2 0 6 7 10 15 3 8 1 15 -4 15 -6 0 -10
-7 -10 -15z"/>
<path d="M3950 8420 c0 -5 5 -10 11 -10 5 0 7 5 4 10 -3 6 -8 10 -11 10 -2 0
-4 -4 -4 -10z"/>
<path d="M3980 8419 c0 -5 5 -7 10 -4 6 3 10 8 10 11 0 2 -4 4 -10 4 -5 0 -10
-5 -10 -11z"/>
<path d="M3364 8349 c-3 -6 -2 -15 4 -21 6 -6 11 -2 15 11 5 22 -7 29 -19 10z"/>
<path d="M3345 8311 c-3 -5 -2 -12 3 -15 5 -3 9 1 9 9 0 17 -3 19 -12 6z"/>
<path d="M2872 8457 c-8 -10 -6 -13 7 -13 11 0 17 6 14 13 -3 7 -6 13 -8 13
-1 0 -7 -6 -13 -13z"/>
<path d="M2940 8420 c0 -5 5 -10 10 -10 6 0 10 5 10 10 0 6 -4 10 -10 10 -5 0
-10 -4 -10 -10z"/>
<path d="M2698 8323 c-21 -5 -23 -19 -5 -26 7 -3 19 4 25 14 12 19 11 20 -20
12z"/>
<path d="M2710 8270 c0 -5 7 -10 16 -10 8 0 12 5 9 10 -3 6 -10 10 -16 10 -5
0 -9 -4 -9 -10z"/>
<path d="M2618 8243 c6 -2 18 -2 25 0 6 3 1 5 -13 5 -14 0 -19 -2 -12 -5z"/>
<path d="M2070 8050 c-8 -5 -10 -10 -5 -10 6 0 17 5 25 10 8 5 11 10 5 10 -5
0 -17 -5 -25 -10z"/>
<path d="M4895 8060 c3 -5 8 -10 11 -10 2 0 4 5 4 10 0 6 -5 10 -11 10 -5 0
-7 -4 -4 -10z"/>
<path d="M5500 8100 c0 -5 5 -10 11 -10 5 0 7 5 4 10 -3 6 -8 10 -11 10 -2 0
-4 -4 -4 -10z"/>
<path d="M1629 8033 c-13 -16 -12 -17 4 -4 9 7 17 15 17 17 0 8 -8 3 -21 -13z"/>
<path d="M2998 7683 c7 -3 16 -2 19 1 4 3 -2 6 -13 5 -11 0 -14 -3 -6 -6z"/>
<path d="M2986 7535 c4 -8 10 -15 15 -15 4 0 6 7 3 15 -4 8 -10 15 -15 15 -4
0 -6 -7 -3 -15z"/>
<path d="M3970 7495 c0 -8 4 -15 10 -15 5 0 7 7 4 15 -4 8 -8 15 -10 15 -2 0
-4 -7 -4 -15z"/>
<path d="M2970 7235 c-47 -13 -79 -24 -72 -24 20 -2 146 31 157 40 5 5 7 9 5
8 -3 0 -43 -11 -90 -24z"/>
<path d="M2795 6564 c-9 -14 -14 -28 -12 -31 3 -3 13 9 22 26 19 38 14 41 -10
5z"/>
<path d="M4895 6090 c-3 -6 1 -7 9 -4 18 7 21 14 7 14 -6 0 -13 -4 -16 -10z"/>
<path d="M2712 6023 c-23 -5 -47 -47 -36 -64 3 -6 0 -17 -7 -26 -11 -13 -10
-17 5 -28 10 -8 15 -18 11 -24 -3 -6 -1 -11 5 -11 8 0 10 -10 6 -27 -5 -22 -4
-25 4 -13 9 11 13 12 17 2 2 -7 11 -19 19 -27 13 -13 18 -13 39 1 13 9 29 13
35 9 13 -8 13 7 0 23 -7 8 -7 9 1 3 16 -13 61 9 55 26 -3 7 -1 13 4 13 6 0 10
7 10 15 0 8 -7 15 -16 15 -8 0 -12 5 -9 10 6 10 -5 13 -40 11 -14 -1 -16 1 -7
7 6 4 11 20 10 35 -2 20 -8 27 -24 27 -12 0 -30 3 -40 7 -16 6 -16 7 2 14 18
7 18 8 -1 7 -11 0 -30 -3 -43 -5z m28 -103 c0 -5 -2 -10 -4 -10 -3 0 -8 5 -11
10 -3 6 -1 10 4 10 6 0 11 -4 11 -10z m98 -25 c1 -14 -2 -25 -7 -25 -5 0 -8
11 -8 25 0 14 2 25 6 25 4 0 8 -11 9 -25z m-108 -11 c0 -9 -5 -14 -12 -12 -18
6 -21 28 -4 28 9 0 16 -7 16 -16z"/>
<path d="M2850 5820 c0 -5 5 -10 10 -10 6 0 10 5 10 10 0 6 -4 10 -10 10 -5 0
-10 -4 -10 -10z"/>
<path d="M2787 5796 c-4 -10 -1 -13 8 -9 8 3 12 9 9 14 -7 12 -11 11 -17 -5z"/>
<path d="M5263 7663 c-15 -5 -17 -23 -4 -23 5 0 11 7 15 15 3 8 4 15 3 14 -1
0 -8 -3 -14 -6z"/>
<path d="M5038 7353 c7 -3 16 -2 19 1 4 3 -2 6 -13 5 -11 0 -14 -3 -6 -6z"/>
<path d="M5680 6987 c8 -8 100 -47 100 -42 0 3 -12 11 -27 18 -32 17 -81 32
-73 24z"/>
<path d="M6860 7090 c0 -5 5 -10 10 -10 6 0 10 5 10 10 0 6 -4 10 -10 10 -5 0
-10 -4 -10 -10z"/>
<path d="M7001 7054 c0 -11 3 -14 6 -6 3 7 2 16 -1 19 -3 4 -6 -2 -5 -13z"/>
<path d="M7051 6914 c0 -11 3 -14 6 -6 3 7 2 16 -1 19 -3 4 -6 -2 -5 -13z"/>
<path d="M6710 5890 c0 -5 5 -10 10 -10 6 0 10 5 10 10 0 6 -4 10 -10 10 -5 0
-10 -4 -10 -10z"/>
<path d="M6711 5854 c0 -11 3 -14 6 -6 3 7 2 16 -1 19 -3 4 -6 -2 -5 -13z"/>
<path d="M7001 5994 c0 -11 3 -14 6 -6 3 7 2 16 -1 19 -3 4 -6 -2 -5 -13z"/>
<path d="M6742 5635 c-1 -16 -5 -41 -8 -55 -5 -19 -4 -22 5 -14 7 7 11 29 8
55 -2 30 -4 34 -5 14z"/>
<path d="M5245 5228 l-16 -33 21 24 c11 13 20 27 20 32 0 18 -10 8 -25 -23z"/>
<path d="M4950 4879 c-36 -33 -51 -52 -35 -41 29 19 114 102 105 102 -3 0 -34
-28 -70 -61z"/>
<path d="M6165 5120 c-3 -5 1 -10 9 -10 8 0 18 5 21 10 3 6 -1 10 -9 10 -8 0
-18 -4 -21 -10z"/>
<path d="M2180 5036 c8 -8 26 -17 40 -21 l25 -6 -25 20 c-30 24 -64 30 -40 7z"/>
<path d="M5237 4834 c-4 -4 -7 -14 -7 -23 0 -11 3 -12 11 -4 6 6 10 16 7 23
-2 6 -7 8 -11 4z"/>
<path d="M4488 4543 c7 -3 16 -2 19 1 4 3 -2 6 -13 5 -11 0 -14 -3 -6 -6z"/>
<path d="M5380 4590 c-9 -6 -10 -10 -3 -10 6 0 15 5 18 10 8 12 4 12 -15 0z"/>
<path d="M5231 4581 c-7 -5 -9 -11 -5 -14 5 -3 15 1 22 9 14 16 5 18 -17 5z"/>
<path d="M5050 3500 c0 -5 5 -10 10 -10 6 0 10 5 10 10 0 6 -4 10 -10 10 -5 0
-10 -4 -10 -10z"/>
<path d="M2766 3497 c3 -10 9 -15 12 -12 3 3 0 11 -7 18 -10 9 -11 8 -5 -6z"/>
<path d="M3543 824 c-8 -22 5 -31 60 -38 31 -5 47 -4 47 4 0 6 -8 13 -17 16
-10 3 -30 12 -45 20 -33 18 -37 18 -45 -2z"/>
<path d="M4210 660 c0 -5 7 -10 15 -10 8 0 15 5 15 10 0 6 -7 10 -15 10 -8 0
-15 -4 -15 -10z"/>
<path d="M692 6800 c0 -14 2 -19 5 -12 2 6 2 18 0 25 -3 6 -5 1 -5 -13z"/>
</g>
</svg>
